<?xml version="1.0" standalone="no"?>
<!DOCTYPE svg PUBLIC "-//W3C//DTD SVG 1.1//EN" "http://www.w3.org/Graphics/SVG/1.1/DTD/svg11.dtd" >
<svg xmlns="http://www.w3.org/2000/svg">
<metadata></metadata>
<defs>
<font id="reynold_art_decoregular" horiz-adv-x="993" >
<font-face units-per-em="2048" ascent="1638" descent="-410" />
<missing-glyph horiz-adv-x="675" />
<glyph horiz-adv-x="2048" />
<glyph horiz-adv-x="2048" />
<glyph horiz-adv-x="682" />
<glyph horiz-adv-x="1024" />
<glyph horiz-adv-x="1024" />
<glyph horiz-adv-x="1024" />
<glyph unicode="&#xa;" horiz-adv-x="1024" />
<glyph horiz-adv-x="1024" />
<glyph horiz-adv-x="1024" />
<glyph unicode="&#xd;" horiz-adv-x="1024" />
<glyph horiz-adv-x="1024" />
<glyph horiz-adv-x="1024" />
<glyph horiz-adv-x="1024" />
<glyph horiz-adv-x="944" d="M6 383q0 -25 62 -57l10 -9l26 9q53 88 92.5 152.5t65.5 107.5q0 -6 1 -18.5t3 -30.5q2 -14 2 -27v-21q0 -29 -6 -53q8 -31 8 -98q0 -14 -2 -42t-2 -40v2q-2 -14 -3 -34.5t-1 -49.5v2q-2 -10 -2 -22v-25q0 -29 3 -61.5t7 -67.5l289 4l4 10h8l7 2q-2 -2 2 -12l338 8 q8 25 8 35q8 16 8 43q0 33 -25 51l-239 -20l-108 -9l-36 -3q-86 0 -147 28q-10 401 -19 602q125 199 265 394q-2 14 -35 30q-10 8 -45 21l-15 -6q-59 -94 -103 -164t-73 -117l-10 475q-2 96 -3 154.5t-1 81.5q0 29 -41 28q-8 0 -22.5 -2t-22.5 -2q-10 4 -18.5 6t-16.5 4 q-6 -43 -6 -71q0 -20 4 -61.5t4 -61.5l2 -4q4 -51 6 -76t2 -22h-2q0 -29 13 -78q-2 -20 -45 -43h34q14 -164 25 -467q-250 -346 -250 -375z" />
<glyph horiz-adv-x="944" d="M6 383q0 -25 62 -57l10 -9l26 9q53 88 92.5 152.5t65.5 107.5q0 -6 1 -18.5t3 -30.5q2 -14 2 -27v-21q0 -29 -6 -53q8 -31 8 -98q0 -14 -2 -42t-2 -40v2q-2 -14 -3 -34.5t-1 -49.5v2q-2 -10 -2 -22v-25q0 -29 3 -61.5t7 -67.5l289 4l4 10h8l7 2q-2 -2 2 -12l338 8 q8 25 8 35q8 16 8 43q0 33 -25 51l-239 -20l-108 -9l-36 -3q-86 0 -147 28q-10 401 -19 602q125 199 265 394q-2 14 -35 30q-10 8 -45 21l-15 -6q-59 -94 -103 -164t-73 -117l-10 475q-2 96 -3 154.5t-1 81.5q0 29 -41 28q-8 0 -22.5 -2t-22.5 -2q-10 4 -18.5 6t-16.5 4 q-6 -43 -6 -71q0 -20 4 -61.5t4 -61.5l2 -4q4 -51 6 -76t2 -22h-2q0 -29 13 -78q-2 -20 -45 -43h34q14 -164 25 -467q-250 -346 -250 -375z" />
<glyph horiz-adv-x="831" d="M33 8q47 0 117.5 -1t166.5 -3q98 -2 170 -3t119 -1h125l29 31q-4 8 -6 55q-4 35 -29 47q-170 -43 -336 -43q-127 0 -170 16q29 141 68 256q86 254 92 256q70 209 86 246l-2 -2q23 51 34 76t19 37q23 53 39 93t27 69q141 326 239 479l-18 16q-76 4 -146.5 6t-140.5 2h-151 h-17q-8 0 -22 -2h-39q-2 0 -8.5 -2t-10.5 -2q-4 2 -8 2l-27 4q-10 2 -30 2q-39 0 -47 -30q4 -29 7 -54.5t3 -50.5q82 16 149.5 25.5t122.5 9.5q47 0 95.5 -3t97.5 -7q-16 -47 -28.5 -81t-22.5 -56l2 2l-9 -23l2 2q-16 -35 -29.5 -61.5t-21.5 -42.5q-31 -66 -62.5 -141.5 t-66.5 -163.5q-16 -41 -43.5 -117t-68.5 -193q-14 -35 -23.5 -61.5t-17.5 -42.5q-41 -117 -65.5 -178.5t-29.5 -71.5q-8 -16 -14 -27.5t-10 -19.5q-29 -80 -37 -115l2 2q-41 -78 -55 -135zM309 2073l164 -287h100l156 287h-90l-125 -189l-117 189h-88z" />
<glyph horiz-adv-x="831" d="M33 8q47 0 117.5 -1t166.5 -3q98 -2 170 -3t119 -1h125l29 31q-4 8 -6 55q-4 35 -29 47q-170 -43 -336 -43q-127 0 -170 16q29 141 68 256q86 254 92 256q70 209 86 246l-2 -2q23 51 34 76t19 37q23 53 39 93t27 69q141 326 239 479l-18 16q-76 4 -146.5 6t-140.5 2h-151 h-17q-8 0 -22 -2h-39q-2 0 -8.5 -2t-10.5 -2q-4 2 -8 2l-27 4q-10 2 -30 2q-39 0 -47 -30q4 -29 7 -54.5t3 -50.5q82 16 149.5 25.5t122.5 9.5q47 0 95.5 -3t97.5 -7q-16 -47 -28.5 -81t-22.5 -56l2 2l-9 -23l2 2q-16 -35 -29.5 -61.5t-21.5 -42.5q-31 -66 -62.5 -141.5 t-66.5 -163.5q-16 -41 -43.5 -117t-68.5 -193q-14 -35 -23.5 -61.5t-17.5 -42.5q-41 -117 -65.5 -178.5t-29.5 -71.5q-8 -16 -14 -27.5t-10 -19.5q-29 -80 -37 -115l2 2q-41 -78 -55 -135zM309 2073l164 -287h100l156 287h-90l-125 -189l-117 189h-88z" />
<glyph unicode=" "  horiz-adv-x="675" />
<glyph unicode="&#x09;" horiz-adv-x="675" />
<glyph unicode="&#xa0;" horiz-adv-x="675" />
<glyph unicode="!" horiz-adv-x="374" d="M37 1536q41 -4 51 -23q6 -10 6 -59l17 -1141h69l6 1141q0 49 7 59q10 16 53 23v102h-209v-102zM82 82q0 -92 63 -92q61 0 62 92q0 102 -62 102q-63 0 -63 -102z" />
<glyph unicode="&#x22;" horiz-adv-x="421" d="M20 1638l43 -338h58l41 338h-142zM256 1638l43 -338h57l43 338h-143z" />
<glyph unicode="#" horiz-adv-x="768" d="M8 479h105l-72 -479h109l73 479h217l-71 -479h108l72 479h100l15 105h-99l82 516h96l17 106h-98l67 432h-111l-65 -432h-219l65 432h-108l-66 -432h-106l-17 -106h107l-80 -516h-106zM238 584l79 516h222l-82 -516h-219z" />
<glyph unicode="$" horiz-adv-x="591" d="M29 227l28 -227q59 16 84 16q57 -20 88 -24v-94h82v94q264 12 264 307q0 106 -24 246q-14 74 -29.5 133t-36.5 104q-57 111 -100 193t-74 135v352l58 -78l49 23l-60 180q-27 -18 -47 -24v77h-82v-57q-31 6 -51 6q-66 0 -99.5 -47t-33.5 -115q0 -63 72 -188 q29 -47 56.5 -92t55.5 -90v-977q-90 35 -135 168zM147 1432q0 47 23 57v-2q10 4 25.5 6t33.5 4v-254h-2q-14 23 -24.5 42.5t-16.5 35.5q-39 41 -39 111zM311 78v842q33 -63 60.5 -139t52.5 -169q49 -188 49 -323q0 -109 -53 -158v2q-33 -27 -109 -55z" />
<glyph unicode="%" horiz-adv-x="901" d="M18 1241q0 -160 31 -240q49 -127 180 -127q133 0 183 127q31 80 30 240q0 135 -43 246q-59 152 -170 151q-109 0 -168 -151q-43 -115 -43 -246zM119 1241q0 152 37 242v-2q34 65 73 65q41 0 76 -65v2q37 -90 37 -242q0 -272 -113 -272q-111 0 -110 272zM184 0h97 l448 1640h-96zM461 367q0 -160 31 -240q49 -127 180 -127q133 0 182 127q31 80 31 240q0 135 -43 245q-59 152 -170 152q-109 0 -168 -152q-43 -115 -43 -245zM561 367q0 152 37 241v-2q35 66 74 66q41 0 76 -66v2q37 -90 36 -241q0 -272 -112 -273q-111 0 -111 273z" />
<glyph unicode="&#x26;" horiz-adv-x="880" d="M86 584q0 -279 113 -441q106 -154 252 -153q174 0 266 168q74 137 74 327q0 281 -166 383v2q81 7 147 68v-2q78 72 78 190q0 2 -1 13.5l-3 34.5l-80 -58q-4 -84 -94 -147q-35 -27 -119 -45q-162 -41 -215 -101q-59 -70 -59 -229q0 -264 157 -264q133 0 144 164h-78 q-8 -70 -56 -70q-78 0 -77 172q0 223 137 223q100 0 153 -123q39 -92 39 -211q0 -188 -84 -307q-70 -100 -157 -100q-104 0 -189 127q-92 143 -92 385q0 199 74 325q88 152 274 162v105q-8 0 -29.5 -2t-31.5 -2q-160 0 -160 104q0 41 34 65.5t77 24.5q94 0 123 -104h45 l55 159l-62 31l-57 -24q-49 31 -110 30q-86 0 -140.5 -50t-54.5 -136q0 -125 127 -150q-139 -59 -203 -231q-51 -133 -51 -313z" />
<glyph unicode="'" horiz-adv-x="167" d="M20 1638l37 -338h52l38 338h-127z" />
<glyph unicode="(" horiz-adv-x="350" d="M25 750q0 -645 307 -750v102q-209 141 -209 648q0 643 209 788v104q-176 -66 -254 -395q-53 -225 -53 -497z" />
<glyph unicode=")" horiz-adv-x="350" d="M25 0v102q209 141 208 648q0 643 -208 788v104q176 -66 254 -395q53 -225 53 -497q0 -645 -307 -750z" />
<glyph unicode="*" horiz-adv-x="483" d="M10 1423l13 -4q14 27 40 27q-4 0 136 -43l-54 -113q-20 -45 -45 -45q-8 0 -12 2l-4 -12l94 -43l4 12q-18 16 -16 29v6h-6l78 172l67 -139q8 -14 8 -37q0 -14 -12 -23l8 -18l58 29l-84 184q135 49 137 49q20 0 33 -20h2l12 6l-35 94l-12 -4q4 -31 -43 -47l-123 -45v127 q0 41 37 59v12h-111v-12q35 -18 35 -59v-125l-115 33q-41 16 -41 47l-14 4zM377 1229l18 10q-6 10 -4 16q-4 -2 -14 -2v-24z" />
<glyph unicode="+" horiz-adv-x="1056" d="M20 442h453v-442h117v442h450v115h-450v444h-117v-444h-453v-115z" />
<glyph unicode="," horiz-adv-x="223" d="M47 90q0 -47 49 -80q-10 -33 -19 -58.5t-16 -41.5h64q66 135 65 172q0 90 -73 90q-70 0 -70 -82z" />
<glyph unicode="-" horiz-adv-x="391" d="M23 559h94l22 35h174l78 125h-102l-19 -31h-168z" />
<glyph unicode="." horiz-adv-x="223" d="M53 74q1 -82 58 -82t57 82q0 92 -57 92t-58 -92z" />
<glyph unicode="/" horiz-adv-x="391" d="M10 0h94l287 1640h-94z" />
<glyph unicode="0" horiz-adv-x="694" d="M10 709q0 -291 43 -447q76 -272 289 -272t287 272q43 156 43 447q0 514 -70 692q-90 238 -254 237q-176 0 -262 -237q-35 -98 -57 -340q-18 -195 -19 -352zM121 709q0 434 53 622q59 207 174 207q100 0 166 -207q49 -154 49 -622q0 -623 -221 -623t-221 623z" />
<glyph unicode="1" horiz-adv-x="323" d="M12 1438l51 -54l62 48v-1266q0 -43 -16.5 -55.5t-63.5 -18.5v-92h256v92q-45 6 -61.5 18.5t-16.5 55.5v1462h-69z" />
<glyph unicode="2" horiz-adv-x="628" d="M25 4q119 6 254 6q111 0 215 -6l51 146l-72 16q-59 -55 -129 -55h-190q154 252 260 501.5t166 503.5q38 158 38 260q0 117 -60 189.5t-177 72.5q-55 0 -105 -22q-25 -10 -90 -62l-59 9l-45 -52l154 -125l43 56q-12 20 -13 26q0 70 101 70q143 0 143 -172q0 -92 -41 -256 q-63 -252 -174 -502t-270 -506v-98z" />
<glyph unicode="3" horiz-adv-x="636" d="M4 74l55 -56l68 21q94 -49 162 -49q178 0 264 182q63 135 63 338q0 166 -45 360q-53 238 -135 330q-43 45 -74 80q14 8 23.5 12t15.5 8q86 55 86 154q0 82 -51 133t-137 51q-41 0 -72 -12q-25 10 -43 18.5t-28 16.5l-70 -152l61 -34q88 63 140 63q37 0 64.5 -25.5 t27.5 -62.5q0 -113 -203 -115v-82q154 -78 234 -211q43 -72 73 -251q14 -78 20.5 -145.5t6.5 -123.5q0 -152 -39 -268q-57 -168 -178 -168q-76 0 -133 107l-56 26z" />
<glyph unicode="4" horiz-adv-x="591" d="M14 985q84 -6 84 -37q0 23 -63 -264h305v-518q0 -43 -17.5 -55.5t-64.5 -18.5v-92h268v92q-47 6 -65.5 18.5t-18.5 55.5v518h140v92h-140v686q0 43 18.5 55.5t65.5 18.5v92h-268v-92q47 -6 64.5 -18.5t17.5 -55.5v-686h-178l43 211l-49 74h-119z" />
<glyph unicode="5" horiz-adv-x="620" d="M10 43l60 -43l55 39q75 -49 147 -49q186 0 273 182q63 135 63 348q0 94 -6 187.5t-16 185.5q-35 258 -99 346v-2q-41 66 -110 113h2q-117 78 -119 80l25 108h178l24 100h-274l-74 -264l25 -16v2q37 -20 61.5 -34.5t36.5 -22.5q125 -88 189 -361q49 -207 49 -422 q0 -238 -76 -346q-57 -88 -141 -88q-80 0 -125 111l-80 26z" />
<glyph unicode="6" horiz-adv-x="636" d="M23 559q0 -211 53 -358q76 -211 248 -211q170 0 247 213q49 143 50 358q0 86 -3.5 170t-11.5 170q-41 477 -274 477q-86 0 -144 -51v2q68 209 166 209q55 0 56 -33v-20t-2 -21l69 -39l72 162l-66 55q-31 -25 -47 -24q2 0 -39 10q-37 10 -57 10q-188 0 -268 -385 q-14 -96 -21.5 -167.5t-11.5 -118.5q-8 -111 -12 -212.5t-4 -195.5zM131 565q0 82 3 169t7 181q4 80 10.5 132.5t12.5 76.5v-2q36 156 147 156q106 0 160 -158q41 -123 41 -540q0 -494 -186 -494q-109 0 -162 195q-33 123 -33 284z" />
<glyph unicode="7" horiz-adv-x="497" d="M8 1442h92q31 55 57.5 70.5t88.5 15.5h106q-49 -152 -109.5 -366t-131.5 -496q-96 -379 -99 -666h189v92q-76 8 -76 45q0 104 53 361q106 498 320 1136q-195 -6 -236 -6q-23 0 -207 6z" />
<glyph unicode="8" horiz-adv-x="643" d="M12 567q0 -575 297 -575q322 0 322 575q0 205 -43 420q-59 276 -158 381q66 59 66 127q0 143 -185 143q-76 0 -127 -34q-57 -39 -57 -115q0 -74 68 -119q-92 -98 -146 -383q-37 -213 -37 -420zM121 602q0 250 45 387q108 336 145 336q33 0 95 -156q16 -49 34.5 -98 t34.5 -96q47 -135 47 -397q0 -489 -213 -490q-111 0 -159 213q-29 137 -29 301zM229 1473q0 73 82 73t82 -71q0 -29 -26.5 -46.5t-55.5 -17.5t-55.5 17.5t-26.5 44.5z" />
<glyph unicode="9" horiz-adv-x="632" d="M23 1063q0 -461 69 -627q76 -190 225 -190q88 0 142 53l2 -2l-17 -31l2 2q-41 -86 -67 -118q-51 -63 -117 -64q-76 0 -76 51q0 10 1 20.5t3 20.5l-59 37l-92 -154l67 -61q27 18 48 18q12 0 48.5 -14t65.5 -14q158 0 250 192q53 115 82 426q10 113 15.5 226.5t5.5 230.5 q0 573 -302 573q-174 0 -247 -215q-49 -141 -49 -360zM131 1044q0 494 186 494q109 0 162 -195q33 -123 33 -284q0 -88 -2 -175t-6 -175q-4 -80 -9.5 -132.5t-11.5 -76.5v2q-37 -156 -147 -156q-102 0 -158 158q-47 135 -47 540z" />
<glyph unicode=":" horiz-adv-x="223" d="M45 82q0 -92 57 -92t58 92q0 100 -58 100q-57 0 -57 -100zM45 627q0 -97 57 -97t58 97q0 100 -58 100q-57 0 -57 -100z" />
<glyph unicode=";" horiz-adv-x="223" d="M47 96q0 -51 49 -84q-10 -35 -19 -62.5t-16 -45.5h64q66 143 65 184q0 94 -73 94q-70 0 -70 -86zM49 629q1 -97 60 -97t59 97q0 100 -59 100t-60 -100z" />
<glyph unicode="&#x3c;" horiz-adv-x="1019" d="M23 436l974 -436v121l-831 364l831 363v123l-974 -436v-99z" />
<glyph unicode="=" horiz-adv-x="1112" d="M57 272h1020v111h-1020v-111zM57 559h1020v113h-1020v-113z" />
<glyph unicode="&#x3e;" horiz-adv-x="1019" d="M23 0v121l831 364l-831 363v123l974 -436v-99z" />
<glyph unicode="?" horiz-adv-x="471" d="M45 1458l80 -31q63 111 125 111q59 0 92 -51q27 -45 27 -107q0 -139 -129 -397q-53 -106 -113 -291q-66 -207 -66 -299v-80h82q4 207 93 373q27 51 59.5 128t71.5 181q43 113 43 117h-2q61 143 61 279q0 102 -53 172q-57 76 -158 75q-10 0 -31.5 -4t-31.5 -4 q-23 0 -78 27zM53 74q1 -82 58 -82t57 82q0 92 -57 92t-58 -92z" />
<glyph unicode="@" horiz-adv-x="1267" d="M72 629q0 -272 129 -451q143 -197 407 -196q209 0 353 94q61 -4 61 65q0 59 -64 60q-51 0 -63 -47q-119 -82 -287 -82q-213 0 -332 178q-100 152 -100 379q0 322 191 485q143 125 307 125q98 0 178 -30.5t135 -87t85 -137.5t30 -179q0 -403 -162 -404q-53 0 -53 105v416 q16 20 16 45q0 61 -59 61q-12 0 -45 -16h-131q-168 0 -246 -183q-55 -133 -55 -327q0 -195 120 -195q98 0 185 123q27 37 110 207v-135q0 -74 39 -131q43 -63 115 -64q270 0 270 498q0 240 -145 385q-143 143 -387 143q-201 0 -371 -139q-231 -190 -231 -565zM471 502 q0 145 35 256q51 160 164 160h110q-12 -88 -104 -291q-109 -225 -168 -226q-37 0 -37 101z" />
<glyph unicode="A" d="M39 12q98 0 129 8l27 99q82 23 174 34t180 21q20 -6 141 -12q98 -2 121 -23q14 -12 20 -57q10 -53 21 -70q20 -12 39 -12q31 0 49 8q29 0 37 2q-119 467 -193.5 766t-107.5 441q-29 123 -48.5 214t-33.5 152q-12 55 -66 55h-10q-27 -20 -39 -55q-4 -10 -8 -26.5t-8 -38.5 l-2 -2q0 -53 -29 -82l8 -9q-53 -199 -93 -346t-62 -248v3q-16 -59 -31.5 -108.5t-32.5 -90.5l2 2q-18 -57 -24 -90v2q-47 -166 -87 -299t-73 -238zM231 283q63 197 86 290q82 315 135 510t76 273q4 -16 6.5 -29.5t4.5 -23.5q33 -123 57.5 -214.5t40.5 -150.5 q92 -362 154 -659l-553 -9l-2 13h-5z" />
<glyph unicode="B" horiz-adv-x="729" d="M33 1616q29 -317 43 -801q10 -350 16 -552t10 -255q39 -4 65 -6t40 -2q82 0 176 41q88 41 141 113q182 244 183 628q0 270 -91 631v-2l-2 10q-2 2 -2 9q0 18 54 61q53 47 53 88v8q-39 37 -66 45q-6 0 -15 3t-13 3l-543 -4zM150 1423q0 84 45 121q41 0 124 6q41 4 73 6.5 t54 2.5q20 0 49 -3.5t64 -7.5l6 -6l-4 -18q-119 -96 -321 -199h2q-10 -4 -24.5 -11t-31.5 -16v2q-10 -4 -18 -5t-12 -3q0 10 -1 27.5t-2 37t-2 37t-1 29.5zM162 1120q33 43 90 76q37 23 65.5 39t49.5 27q14 10 24 19t19 15l125 86q57 -106 57 -467q0 -340 -70 -555 q-35 -104 -112 -192q-70 -76 -144 -76q-39 0 -51 84q-4 27 -5 45.5t-3 30.5q-18 215 -29.5 431t-15.5 437z" />
<glyph unicode="C" horiz-adv-x="714" d="M33 1602q0 -881 123 -1166q23 -53 55.5 -107.5t75.5 -111.5v2q23 -35 36 -52t15 -20q45 -37 98 -67q41 -25 64.5 -38t31.5 -17q51 -25 111 -25q35 0 64 12q0 45 -11 56q-195 63 -227 104q-23 29 -39 48.5t-27 33.5q-20 27 -31.5 42t-15.5 19v-2q-98 164 -149 392 q-102 451 -103 651q0 94 35 157q80 37 189 37q16 0 38.5 -1t51.5 -3q31 -2 53 -2h39q147 0 147 55v9l-2 8l-16 20h-33q-12 2 -22 2h-13q-88 0 -256 -6q-86 -2 -149.5 -3t-106.5 -1z" />
<glyph unicode="D" horiz-adv-x="800" d="M29 1536l3 -30q3 -29 7 -89q14 -160 20.5 -402.5t6.5 -574.5q0 -82 -2.5 -150.5t-6.5 -127.5q-4 -45 -5 -66l-1 -22q0 -70 76 -70q14 0 41 3t39 3q20 0 33 -6h41t57.5 -2t54.5 -2h41q252 0 328 106q33 41 33 166q0 236 -170 607q-84 170 -127 254q-29 57 -57.5 104 t-55.5 82q-172 254 -315 321q-41 -29 -41 -104zM111 1489v6q43 -25 112 -98h-2q63 -86 109.5 -148.5t75.5 -107.5q145 -268 198 -402q94 -233 94 -434v-7q0 -91 -24 -159q-59 -59 -209 -59h-113q-152 0 -176 6q-23 10 -22 20l2 3v51q0 31 -2 71.5t-2 69.5v49q0 35 1 86 t3 121t3 122t1 87q0 57 -6.5 147.5t-20.5 212.5q-14 119 -19 209q-4 64 -4 115q0 21 1 39z" />
<glyph unicode="E" horiz-adv-x="770" d="M35 1589q0 -14 1 -32.5t3 -40.5q2 -29 3 -47.5t1 -28.5q2 -16 2 -31v-23v3q39 -653 209 -1016l-2 2q125 -307 440 -369q33 -6 47 -6q18 18 19 37q0 10 -4 22q-225 86 -389 355q-20 41 -33 72.5t-21 54.5q-76 195 -115.5 334t-48.5 225q-4 70 -6 104l-2 4q0 12 -4 37 t-4 37q0 74 62 86q150 31 337 31q12 0 36 -2t36 -2q51 0 88 24q2 4 2 27q0 25 -18 37q-18 0 -55 2t-56 2q-23 0 -56.5 -1t-78.5 -3t-80 -2h-55q-51 0 -91 2t-69 6q6 23 39 49q129 8 250 12t237 4l29 19q4 12 4 26q0 25 -20 39l-566 -8q-10 -2 -20 -2q-8 0 -18 -2 q-33 -6 -33 -37z" />
<glyph unicode="F" horiz-adv-x="684" d="M31 1604q2 -16 4 -29.5t4 -24.5l18 -876q6 -342 6 -346q0 -57 -1 -137t-3 -185q31 -6 62 -6q45 0 67 16q-35 516 -43 1327l19 19q111 20 256 24q14 0 44 2.5t46 2.5q113 0 119 2h-2q37 8 37 47q0 18 -13 30l-303 11q-2 2 -6 2q-12 0 -31.5 -2t-40 -5t-40 -5.5t-31.5 -2.5 q-27 0 -49 9q4 55 24 63v-2q43 16 174 16q23 0 56.5 -1t80.5 -3t81 -3t57 -1q20 0 36.5 16.5t16.5 36.5q0 37 -25 37h-84h-41q-14 -2 -24 -2h-15h-90q-53 0 -124.5 2t-127.5 2h-88q-23 -6 -24 -30z" />
<glyph unicode="G" horiz-adv-x="755" d="M35 1610q2 -201 3 -303.5t1 -106.5q0 -170 72 -541q57 -299 256 -479q27 -20 45 -33.5t32 -23.5h-2q166 -123 271 -123h12l18 2v49q2 16 2 27v20v189q0 88 -3 218t-7 306q-4 178 -6 309t-2 219v68q-4 23 -7 41t-7 31q-72 6 -156 6h-133h-45t-61.5 -2t-61.5 -2h-45 l-23 -21q-10 -25 -10 -28v-5q15 -28 89 -28h5q12 0 33 1t43.5 2t43 2t32.5 1q123 0 188 -59q29 -219 37 -496q2 -227 3 -396t1 -282q0 -6 -8 -37q-6 -27 -18 -26h-4q-137 55 -232 204q-115 180 -186 404q-6 16 -10.5 29.5t-8.5 23.5l2 -4q-35 172 -53 321.5t-18 284.5 q0 141 30 176q72 0 218 6q72 4 127 6.5t90 2.5q49 0 110 -7q33 14 33 43q0 20 -14 35h-138q-80 0 -190.5 2t-192.5 2h-133l-10 -6z" />
<glyph unicode="H" horiz-adv-x="786" d="M35 1589q0 -8 4 -22.5t4 -20.5l2 -35q2 -27 2 -45v-32q8 -238 11 -396.5t3 -244.5v-250q0 -113 -3 -237t-7 -261l21 -37q10 0 30.5 -4t30.5 -4q14 0 41 16q-14 258 -21.5 535.5t-7.5 581.5v112q0 49 2 82q35 61 115 64q8 0 25.5 2t37 5t37 5t27.5 2q16 0 53 -3t90 -11 q80 -10 107 -62v-182q0 -68 2 -92q18 -446 18 -518q0 -84 -12 -330q0 -8 -1 -21.5t-3 -33.5q-2 -16 -3 -29.5t-1 -24.5q0 -45 10 -86q33 -2 45.5 -3t3.5 -1q53 0 76 21q-4 90 -8 233.5t-8 343.5q-4 188 -8.5 331.5t-12.5 246.5q-6 119 -24 176v6l-2 2h24q0 72 4 135.5 t13 120.5q-27 14 -58 14q-37 0 -61 -8l-10 -16q16 -55 16 -82q0 -31 -18 -45q-23 0 -58 -1t-82 -3t-82 -2h-57q-53 0 -102.5 3t-96.5 11l13 121q-8 2 -17 2h-12q-16 0 -23 -2l-10 -10v22q-39 0 -53 -8q-6 -16 -6 -31z" />
<glyph unicode="I" horiz-adv-x="212" d="M33 1776q0 -74 41 -74h6l4 2q2 -2 6 -2q37 0 37 49v14q0 14 -16.5 27.5t-30.5 13.5h-10q-4 -2 -10.5 -3t-10.5 -3q-16 -10 -16 -24zM45 1628q8 -276 12 -516t4 -444v-420v-101q0 -53 -2 -112l17 -31q29 -2 41 -3t6 -1q27 0 37 31q2 6 2 116q0 59 -4 208t-13 386 q-12 352 -12 596v31q0 20 2 47v78v127l-10 12q-41 12 -49 13q-18 0 -31 -17z" />
<glyph unicode="J" horiz-adv-x="770" d="M35 1575q0 -45 41 -45q18 0 53 8t47 8h41q27 0 61.5 2t61.5 2h43q16 -8 127 -14q88 -4 125 -39q24 -141 24 -282v-11q0 -500 -256 -897q-84 -127 -215 -201q-47 -27 -69 -32l-2 -2q-4 0 -12.5 3t-12.5 3q-29 0 -29 -43q0 -35 31 -35q88 0 228 72q182 96 301 358 q45 100 49 111q86 254 86 731q0 178 -6 338l-25 28h-221q-190 0 -455 -18l-12 -10q-4 -20 -4 -35z" />
<glyph unicode="K" horiz-adv-x="882" d="M39 1593q14 -137 20.5 -206.5t6.5 -73.5q10 -156 16 -330t6 -367v-43q0 -25 -2 -59.5t-2 -60.5v-41q0 -10 2 -28.5t2 -29.5q0 -20 -3 -49t-7 -67.5t-6 -67.5t-2 -49q0 -100 28 -113l-2 2q10 -8 29 -8q10 0 28.5 2t26.5 2h2l4 -2h11q14 20 14 39q0 -8 -2 2t-6 39 q-2 35 -3 61.5t1 44.5q-2 74 -5 210.5t-10 334.5q-12 344 -12 545l107 74q16 0 51 20q41 23 51 23q8 0 20 -4q45 -131 90.5 -300t90.5 -380l149 -701q12 0 38 -2t40 -2q41 0 55 33q-27 82 -55.5 182.5t-56.5 218.5l-99 406q-23 86 -39 155.5t-26 126.5l-41 207 q-20 102 -25 133q35 29 125 60q92 33 129 61q-2 45 -55 45q-10 0 -32.5 -2t-35.5 -2q-10 0 -14 4q-121 -84 -344 -172q-45 -16 -76 -28.5t-49 -16.5q-6 14 -6 35q0 12 2 30.5t3 39t3 40t2 31.5v9q-30 24 -67 24h-3q-55 0 -67 -29v-6z" />
<glyph unicode="L" horiz-adv-x="757" d="M18 1225h33q20 -322 31 -611q0 -6 1 -21t3 -42q2 -18 2 -35v-27q0 -29 -6 -53q8 -31 8 -98q0 -14 -2 -42t-2 -40v2q-6 -43 -6 -129q0 -29 3 -61.5t7 -67.5l287 4l4 10h6l6 2q-2 -2 2 -12l338 8q14 45 15 78q0 35 -23 51l-238 -20q-72 -6 -107 -9l-36 -3q-92 0 -145 28 l-37 1235q-2 76 -3 134.5t-1 101.5q0 29 -39 28q-8 0 -22.5 -2t-22.5 -2q-8 2 -21 6l-16 -10q-2 -18 -3 -32.5t-1 -24.5q0 -20 4 -61.5t4 -61.5l2 -4q4 -51 6 -76t2 -22h-2q0 -29 12 -78q-4 -23 -43 -43z" />
<glyph unicode="M" horiz-adv-x="1320" d="M57 20q49 -16 66 -16q49 0 72 19q10 86 23 181t34 206q8 41 26.5 136t47.5 249q6 31 18 108.5t33 202.5q14 98 28.5 174t30.5 135q14 -6 27 -33l-2 2q31 -53 54.5 -94t39.5 -67h-2q51 -131 55 -156q6 -25 17 -43q35 0 51 10q8 82 37 160q80 213 129 238 q145 -487 256 -1127l30 -182q8 -37 11.5 -58.5t6.5 -25.5v2q10 -41 42 -41q31 0 47 8h12q6 2 13 2l30 -10q-90 291 -200 813q-59 291 -106.5 493.5t-82.5 323.5q-10 0 -28.5 4t-26.5 4q-18 0 -37 -18l-78 -182l2 2q-23 -47 -45 -85t-45 -67q-66 94 -92 146 q-20 35 -32.5 58.5t-18.5 35.5v-2q-8 18 -13.5 30.5t-9.5 18.5l2 -2q-18 65 -55 65q-27 0 -48.5 -26.5t-25.5 -57.5q-10 -80 -19 -139t-14 -100q-35 -225 -98 -527q-53 -258 -94 -448t-68 -320z" />
<glyph unicode="N" horiz-adv-x="745" d="M33 1606q49 -829 49 -1239l-4 -353q27 -8 55 -8q35 0 62 14q-16 498 -31 748q-10 174 -15.5 285.5t-5.5 158.5q0 43 1 112t3 167q4 0 12.5 2t12.5 2q39 0 90 -14q66 -14 90 -19q31 -16 121 -47q80 -28 117 -57q37 -227 37 -520q0 -12 -1 -31t-1 -39t-1 -38.5t-1 -31.5 q0 -10 -3.5 -32.5t-3.5 -32.5q0 -12 7 -19q2 -10 2 -122q0 -180 -19 -453l23 -39q47 6 73.5 9t32.5 5l-30 1284q-4 129 -6.5 211t-4.5 119q-10 0 -34.5 5t-36.5 5q-37 0 -58 -39l4 -28v2q4 -31 8.5 -53.5t8.5 -38.5l-2 -8q-47 16 -109.5 37.5t-144.5 43.5q-195 55 -244 56 q-10 0 -27.5 -2t-25.5 -2z" />
<glyph unicode="O" horiz-adv-x="923" d="M39 707q2 -10 12 -21q0 -354 189 -592l110 -61q66 -33 121 -33q186 0 295 197q33 59 62.5 148t56.5 210q8 39 12 62.5t6 31.5q2 12 2 45v88q0 123 -4 210t-12 145q-31 193 -125 329q-121 172 -285 172q-102 0 -155 -34q-152 -102 -222 -324q-55 -176 -55 -397 q0 -12 1 -33t1 -43q0 -23 1 -43.5t1 -32.5v-2q-8 -18 -12 -22zM168 844q0 420 108 594q72 108 211 108q14 0 25.5 -1t22.5 -3h-3q113 -33 150 -129q111 -287 111 -584q0 -20 -7 -96q-20 -270 -36 -336q-47 -195 -181 -270q-45 -27 -90 -27q-102 0 -160 62q-82 88 -120 323 q-31 178 -31 359z" />
<glyph unicode="P" horiz-adv-x="686" d="M31 1620q14 -180 21 -393t7 -469q0 -342 -24 -754q35 -2 49 -3t6 -1q41 0 64 18q-6 293 -11 574.5t-6 560.5l31 29l-4 -2q57 35 101 59.5t79 40.5q193 96 264 162v-2q45 39 49 49q20 27 21 65q0 33 -28.5 56.5t-61.5 23.5l-301 -2q-20 0 -60.5 3t-60.5 3q-80 0 -135 -18z M135 1413q0 18 3 54t3 55q33 14 74 18t80 6q6 0 19.5 4t21.5 4q6 0 19.5 -2t19.5 -2h102h3q43 0 75 -26q-25 -51 -193 -127q-147 -72 -215 -80q-12 45 -12 96z" />
<glyph unicode="Q" horiz-adv-x="921" d="M41 1069q0 -262 133 -420q25 -29 59.5 -52.5t74.5 -40.5t83 -27.5t82 -10.5q27 0 70 6q-221 -233 -340 -352q-14 -20 -25.5 -34.5t-21.5 -24.5v2q-43 -37 -43 -88q51 -27 116 -27q12 0 32 1t39 3t37.5 3t31.5 1q41 -8 77 -8l410 12l2 62q-41 8 -113.5 12t-177.5 4h-90 h-123t-67 2q84 104 185 223t224 260q29 33 50.5 56.5t35.5 40.5q27 53 46.5 97t33.5 79q43 117 43 250q0 211 -119 379q-86 117 -180 149q-37 12 -127 12q-190 0 -260 -82q-29 -37 -51.5 -64.5t-36.5 -45.5q-39 -49 -65 -180q-25 -117 -25 -197zM158 1112q0 115 37 219 q47 127 129 176q53 33 155 33q135 0 201 -84q49 -66 76 -211q8 -45 12 -91t4 -95q0 -248 -139 -400q-43 -47 -135 -47q-70 0 -115 19q-74 29 -88 43q-68 57 -107 205q-30 113 -30 226v7z" />
<glyph unicode="R" horiz-adv-x="743" d="M33 4l121 -4q4 80 6 170t2 192q0 66 -1 165.5t-3 232.5t-2 231v166q94 72 186 119q61 27 92 43l6 -8q53 -180 88 -373t52 -403q24 -312 24 -445v-10q0 -78 64 -78h6l2 2h10q27 39 27 55q0 2 -13 123q-59 573 -147 1223q47 37 100 76q57 45 82 92q-20 43 -71 55 q-29 6 -97 6q-10 0 -27.5 2t-27.5 2h-23q-10 0 -20 -2h2q-31 -2 -53.5 -4t-38.5 -4q-297 -12 -336 -18q14 -174 21.5 -352.5t7.5 -364.5q0 -211 -9.5 -432t-29.5 -457zM154 1413q0 57 14 107l12 10q166 18 273 18h84q6 0 10 -2h12l12 -6h2v-2q-141 -135 -409 -229 q-10 35 -10 104z" />
<glyph unicode="S" horiz-adv-x="909" d="M41 43q0 -33 22 -43l170 4q37 0 91 55q43 45 63 91q113 240 160 950q8 137 24 162q33 184 117 245q35 20 60 31l-3 -2q25 10 46 10q8 0 26.5 -2t28.5 -2q45 0 45 62l-21 28l-47 6q-51 0 -96 -18q-72 -27 -104 -53q-96 -72 -148 -271q-10 -39 -24.5 -116.5t-32.5 -196.5 q-14 -84 -25 -131q-2 -35 -3 -59.5t-1 -40.5q-29 -424 -86 -562q-20 -51 -64 -81.5t-100 -32.5q-41 -2 -64.5 -4t-31.5 -4v-21z" />
<glyph unicode="T" horiz-adv-x="794" d="M6 1561q0 -14 17 -31q16 2 28 3t23 1q12 0 31.5 -2t41 -3t42 -3t32.5 -2q45 0 51 2q10 -303 16.5 -507t6.5 -314q0 -160 -7 -326t-22 -340l23 -35q8 0 22.5 -2t20.5 -2q41 0 74 20q-8 152 -12 422.5t-3 665.5l-2 422q37 6 80 6q31 0 60.5 -2t58.5 -6q8 2 14 3t12 1 q14 0 44 -5t44 -5q31 0 57.5 22.5t26.5 50.5q0 27 -24 33q-37 8 -41 12q-23 -12 -47 -12q-8 0 -58 12v-8l-2 4h-24v-10l-453 -10q8 0 -8 3t-57 7l-4 -6l-11 4l2 -2l-16 6q-10 -2 -23.5 -28.5t-13.5 -38.5z" />
<glyph unicode="U" horiz-adv-x="843" d="M39 391q0 -115 14 -166q20 -82 86 -137q45 -39 113 -39q84 -47 197 -47q8 0 27.5 2t27.5 2q16 0 39.5 -1t56.5 -3t55 -2h41q68 0 133 18l-18 895v25q2 10 2 25q0 33 -1 80t-3 110.5t-3 110.5t-1 79q0 66 5 131.5t15 135.5l-12 28q-100 0 -125 -8l-8 -20q0 -31 14 -60 q10 -166 16.5 -334.5t6.5 -343.5q0 -63 -1 -157t-3 -219v2q-4 -66 -5 -113t-3 -80q-6 -127 -7 -194q-12 -12 -51 -15q-14 -2 -29 -2q-14 0 -28 -2h2q-33 -2 -56.5 -3t-39.5 -1q-178 0 -267 64q-73 50 -73 179q0 122 53 363q70 307 144.5 537.5t160.5 388.5q-49 16 -74 16 h-14q-59 -72 -61 -116l-3 -2q-27 -70 -45 -95q-16 -51 -30.5 -94t-28.5 -80q-10 -29 -18.5 -48t-14.5 -34q-8 -23 -16 -56.5t-19 -76.5v2q-14 -43 -23 -74.5t-15 -54.5q-33 -104 -52.5 -167.5t-25.5 -86.5q-16 -70 -25.5 -134t-9.5 -128z" />
<glyph unicode="V" horiz-adv-x="917" d="M39 1616q20 -63 34.5 -109.5t24.5 -79.5q178 -711 215 -878q20 -92 34.5 -154.5t25.5 -95.5v2q16 -84 27.5 -145.5t19.5 -102.5q12 -53 74 -53q18 0 24 2q16 12 19.5 33.5t3.5 34.5q8 53 18 82q45 168 47 186q252 1178 279 1198q12 49 12 66q0 8 -4 24q-37 0 -41 2 q-41 0 -68 -26q0 -76 -20 -177q-10 -43 -18.5 -86t-18.5 -88q-33 -160 -58.5 -279.5t-43.5 -197.5q-10 -47 -16.5 -84t-10.5 -61v2q-37 -131 -64.5 -246t-48.5 -215q-27 111 -48.5 198.5t-41.5 157.5v-2q-45 203 -79.5 353.5t-57.5 250.5q-8 53 -12 84q-18 74 -31 111 q-51 197 -68 309q-4 0 -14 -2t-14 -2t-6 2h-7l-8 6h-10q-4 2 -8 2q-18 0 -41 -22z" />
<glyph unicode="W" horiz-adv-x="1263" d="M55 1589q10 -29 21.5 -55.5t21.5 -52.5v2q98 -463 158.5 -758t83.5 -430q8 -43 15 -75t12 -54q4 -29 10 -69t12 -93l84 -4q20 59 38.5 116.5t39.5 116.5q47 137 98 224q39 -68 74 -157t63 -202v2q8 -86 43 -86q20 0 37 6q33 14 33 89l2 4q0 49 21 69q55 199 141 715 q78 461 168 709l-17 28q-10 0 -30.5 2t-30.5 2q-66 0 -92 -20q-6 -211 -62 -520q-41 -240 -62.5 -369t-25.5 -149v2q-6 -31 -10 -53.5t-6 -39.5q-8 -31 -15.5 -53t-11.5 -37q-10 -45 -17 -77.5t-11 -55.5q-29 66 -51.5 126.5t-43.5 113.5q-14 39 -23 68.5t-15 50.5 q-4 10 -6.5 17t-4.5 11q-8 41 -24 58q-33 0 -47 -15q-70 -57 -109 -217q-41 -152 -61 -227q-66 260 -86 389q-10 61 -16.5 107.5t-10.5 76.5q-14 96 -31 152q-29 141 -43 216t-16 85q-14 86 -21.5 162t-7.5 141q0 4 2 6v6q-6 31 -53 31q-4 0 -14.5 -2t-14.5 -2 q-74 0 -88 -31z" />
<glyph unicode="X" horiz-adv-x="972" d="M43 4l152 2q10 115 69 250v-2q92 190 111 272l-2 -4q14 27 23.5 45.5t17.5 32.5q14 35 23 61.5t16 45.5q14 29 23 51t16 39q55 -135 97 -233.5t70 -164.5q109 -254 142 -389q25 -10 55 -10q41 0 102 27q-90 156 -193 385t-222 538q41 106 53 158q6 20 25 49 q20 29 40.5 74t43.5 106q10 25 14 49q23 106 112 242q-12 0 -42.5 5t-47.5 5q-43 0 -69 -24q-53 -193 -80 -260l2 4q-59 -195 -111 -281l-4 4q-31 84 -55.5 146.5t-44.5 103.5q-66 154 -78 256l-25 41q-14 0 -42.5 4t-43.5 4q-29 0 -57 -28q55 -96 117 -240 q27 -63 51.5 -124.5t50.5 -123.5q23 -51 41.5 -89t30.5 -64l-2 2q10 -27 10 -41t-12 -41q-72 -168 -122 -294t-83 -212q-41 -100 -84 -182t-88 -148v-47z" />
<glyph unicode="Y" horiz-adv-x="817" d="M35 1602l4 -13q188 -205 256 -293q43 -59 43 -98q0 -18 -1 -46t-3 -65q-2 -35 -2 -63v-45q0 -51 1 -127t3 -178q6 -203 6 -303q0 -123 -4 -211t-12 -148q27 -12 61 -12q29 0 84 23q-16 287 -24.5 499.5t-8.5 356.5q0 94 2 181t6 165q147 223 359 368v31q-51 14 -117 14 q-10 0 -18 -2h-17q-170 -225 -262 -301h-4q-152 197 -209 289q-14 0 -44 4t-44 4q-47 0 -55 -30z" />
<glyph unicode="Z" horiz-adv-x="831" d="M33 8q47 0 117.5 -1t166.5 -3q98 -2 170 -3t119 -1h125l29 31q-4 8 -6 55q-4 35 -29 47q-170 -43 -336 -43q-129 0 -172 16q10 59 28.5 122t41.5 132q88 252 92 256q70 209 86 246l-2 -2q23 49 34 75t19 38q23 53 39 93t27 69q70 162 129 280.5t110 194.5l-18 16 q-76 4 -146.5 6t-140.5 2h-151h-17q-8 0 -22 -2h-39q-4 -2 -8 -2t-9 -2q-31 10 -67 10q-39 0 -47 -32q4 -29 7 -54.5t3 -48.5q164 35 272 35q47 0 95.5 -3t97.5 -7q-16 -47 -28.5 -81t-22.5 -56l2 2l-9 -23l2 2q-16 -35 -29.5 -61.5t-21.5 -42.5q-63 -133 -129 -303 q-12 -33 -39.5 -110t-72.5 -200q-14 -35 -23.5 -61.5t-17.5 -42.5q-41 -111 -64.5 -172.5t-32 -77.5t-13.5 -27.5t-9 -19.5q-29 -76 -37 -113l2 2q-41 -78 -55 -135z" />
<glyph unicode="[" horiz-adv-x="266" d="M31 -203h213v82h-117v1680h117v79h-213v-1841z" />
<glyph unicode="\" horiz-adv-x="391" d="M0 1638l289 -1648h94l-289 1648h-94z" />
<glyph unicode="]" horiz-adv-x="266" d="M31 -121h116v1680h-116v79h213v-1841h-213v82z" />
<glyph unicode="^" horiz-adv-x="716" d="M6 737h113l237 752h2l240 -752h113l-297 901h-111z" />
<glyph unicode="_" horiz-adv-x="999" d="M0 -100v-103h1024v103h-1024z" />
<glyph unicode="`" horiz-adv-x="960" d="M147 1970l310 -301h116l-276 301h-150z" />
<glyph unicode="a" d="M39 12q98 0 129 8l27 99q82 23 174 34t180 21q20 -6 141 -12q98 -2 121 -23q14 -12 20 -57q10 -53 21 -70q20 -12 39 -12q31 0 49 8q29 0 37 2q-119 467 -193.5 766t-107.5 441q-29 123 -48.5 214t-33.5 152q-12 55 -66 55h-10q-27 -20 -39 -55q-4 -10 -8 -26.5t-8 -38.5 l-2 -2q0 -53 -29 -82l8 -9q-53 -199 -93 -346t-62 -248v3q-16 -59 -31.5 -108.5t-32.5 -90.5l2 2q-18 -57 -24 -90v2q-47 -166 -87 -299t-73 -238zM231 283q63 197 86 290q82 315 135 510t76 273q4 -16 6.5 -29.5t4.5 -23.5q33 -123 57.5 -214.5t40.5 -150.5 q92 -362 154 -659l-553 -9l-2 13h-5z" />
<glyph unicode="b" horiz-adv-x="729" d="M33 1616q29 -317 43 -801q10 -350 16 -552t10 -255q39 -4 65 -6t40 -2q82 0 176 41q88 41 141 113q182 244 183 628q0 270 -91 631v-2l-2 10q-2 2 -2 9q0 18 54 61q53 47 53 88v8q-39 37 -66 45q-6 0 -15 3t-13 3l-543 -4zM150 1423q0 84 45 121q41 0 124 6q41 4 73 6.5 t54 2.5q20 0 49 -3.5t64 -7.5l6 -6l-4 -18q-119 -96 -321 -199h2q-10 -4 -24.5 -11t-31.5 -16v2q-10 -4 -18 -5t-12 -3q0 10 -1 27.5t-2 37t-2 37t-1 29.5zM162 1120q33 43 90 76q37 23 65.5 39t49.5 27q14 10 24 19t19 15l125 86q57 -106 57 -467q0 -340 -70 -555 q-35 -104 -112 -192q-70 -76 -144 -76q-39 0 -51 84q-4 27 -5 45.5t-3 30.5q-18 215 -29.5 431t-15.5 437z" />
<glyph unicode="c" horiz-adv-x="714" d="M33 1602q0 -881 123 -1166q23 -53 55.5 -107.5t75.5 -111.5v2q23 -35 36 -52t15 -20q45 -37 98 -67q41 -25 64.5 -38t31.5 -17q51 -25 111 -25q35 0 64 12q0 45 -11 56q-195 63 -227 104q-23 29 -39 48.5t-27 33.5q-20 27 -31.5 42t-15.5 19v-2q-98 164 -149 392 q-102 451 -103 651q0 94 35 157q80 37 189 37q16 0 38.5 -1t51.5 -3q31 -2 53 -2h39q147 0 147 55v9l-2 8l-16 20h-33q-12 2 -22 2h-13q-88 0 -256 -6q-86 -2 -149.5 -3t-106.5 -1z" />
<glyph unicode="d" horiz-adv-x="800" d="M29 1536l3 -30q3 -29 7 -89q14 -160 20.5 -402.5t6.5 -574.5q0 -82 -2.5 -150.5t-6.5 -127.5q-4 -45 -5 -66l-1 -22q0 -70 76 -70q14 0 41 3t39 3q20 0 33 -6h41t57.5 -2t54.5 -2h41q252 0 328 106q33 41 33 166q0 236 -170 607q-84 170 -127 254q-29 57 -57.5 104 t-55.5 82q-172 254 -315 321q-41 -29 -41 -104zM111 1489v6q43 -25 112 -98h-2q63 -86 109.5 -148.5t75.5 -107.5q145 -268 198 -402q94 -233 94 -434v-7q0 -91 -24 -159q-59 -59 -209 -59h-113q-152 0 -176 6q-23 10 -22 20l2 3v51q0 31 -2 71.5t-2 69.5v49q0 35 1 86 t3 121t3 122t1 87q0 57 -6.5 147.5t-20.5 212.5q-14 119 -19 209q-4 64 -4 115q0 21 1 39z" />
<glyph unicode="e" horiz-adv-x="770" d="M35 1589q0 -14 1 -32.5t3 -40.5q2 -29 3 -47.5t1 -28.5q2 -16 2 -31v-23v3q39 -653 209 -1016l-2 2q125 -307 440 -369q33 -6 47 -6q18 18 19 37q0 10 -4 22q-225 86 -389 355q-20 41 -33 72.5t-21 54.5q-76 195 -115.5 334t-48.5 225q-4 70 -6 104l-2 4q0 12 -4 37 t-4 37q0 74 62 86q150 31 337 31q12 0 36 -2t36 -2q51 0 88 24q2 4 2 27q0 25 -18 37q-18 0 -55 2t-56 2q-23 0 -56.5 -1t-78.5 -3t-80 -2h-55q-51 0 -91 2t-69 6q6 23 39 49q129 8 250 12t237 4l29 19q4 12 4 26q0 25 -20 39l-566 -8q-10 -2 -20 -2q-8 0 -18 -2 q-33 -6 -33 -37z" />
<glyph unicode="f" horiz-adv-x="684" d="M31 1604q2 -16 4 -29.5t4 -24.5l18 -876q6 -342 6 -346q0 -57 -1 -137t-3 -185q31 -6 62 -6q45 0 67 16q-35 516 -43 1327l19 19q111 20 256 24q14 0 44 2.5t46 2.5q113 0 119 2h-2q37 8 37 47q0 18 -13 30l-303 11q-2 2 -6 2q-12 0 -31.5 -2t-40 -5t-40 -5.5t-31.5 -2.5 q-27 0 -49 9q4 55 24 63v-2q43 16 174 16q23 0 56.5 -1t80.5 -3t81 -3t57 -1q20 0 36.5 16.5t16.5 36.5q0 37 -25 37h-84h-41q-14 -2 -24 -2h-15h-90q-53 0 -124.5 2t-127.5 2h-88q-23 -6 -24 -30z" />
<glyph unicode="g" horiz-adv-x="755" d="M35 1610q2 -201 3 -303.5t1 -106.5q0 -170 72 -541q57 -299 256 -479q27 -20 45 -33.5t32 -23.5h-2q166 -123 271 -123h12l18 2v49q2 16 2 27v20v189q0 88 -3 218t-7 306q-4 178 -6 309t-2 219v68q-4 23 -7 41t-7 31q-72 6 -156 6h-133h-45t-61.5 -2t-61.5 -2h-45 l-23 -21q-10 -25 -10 -28v-5q15 -28 89 -28h5q12 0 33 1t43.5 2t43 2t32.5 1q123 0 188 -59q29 -219 37 -496q2 -227 3 -396t1 -282q0 -6 -8 -37q-6 -27 -18 -26h-4q-137 55 -232 204q-115 180 -186 404q-6 16 -10.5 29.5t-8.5 23.5l2 -4q-35 172 -53 321.5t-18 284.5 q0 141 30 176q72 0 218 6q72 4 127 6.5t90 2.5q49 0 110 -7q33 14 33 43q0 20 -14 35h-138q-80 0 -190.5 2t-192.5 2h-133l-10 -6z" />
<glyph unicode="h" horiz-adv-x="786" d="M35 1589q0 -8 4 -22.5t4 -20.5l2 -35q2 -27 2 -45v-32q8 -238 11 -396.5t3 -244.5v-250q0 -113 -3 -237t-7 -261l21 -37q10 0 30.5 -4t30.5 -4q14 0 41 16q-14 258 -21.5 535.5t-7.5 581.5v112q0 49 2 82q35 61 115 64q8 0 25.5 2t37 5t37 5t27.5 2q16 0 53 -3t90 -11 q80 -10 107 -62v-182q0 -68 2 -92q18 -446 18 -518q0 -84 -12 -330q0 -8 -1 -21.5t-3 -33.5q-2 -16 -3 -29.5t-1 -24.5q0 -45 10 -86q33 -2 45.5 -3t3.5 -1q53 0 76 21q-4 90 -8 233.5t-8 343.5q-4 188 -8.5 331.5t-12.5 246.5q-6 119 -24 176v6l-2 2h24q0 72 4 135.5 t13 120.5q-27 14 -58 14q-37 0 -61 -8l-10 -16q16 -55 16 -82q0 -31 -18 -45q-23 0 -58 -1t-82 -3t-82 -2h-57q-53 0 -102.5 3t-96.5 11l13 121q-8 2 -17 2h-12q-16 0 -23 -2l-10 -10v22q-39 0 -53 -8q-6 -16 -6 -31z" />
<glyph unicode="i" horiz-adv-x="212" d="M33 1776q0 -74 41 -74h6l4 2q2 -2 6 -2q37 0 37 49v14q0 14 -16.5 27.5t-30.5 13.5h-10q-4 -2 -10.5 -3t-10.5 -3q-16 -10 -16 -24zM45 1628q8 -276 12 -516t4 -444v-420v-101q0 -53 -2 -112l17 -31q29 -2 41 -3t6 -1q27 0 37 31q2 6 2 116q0 59 -4 208t-13 386 q-12 352 -12 596v31q0 20 2 47v78v127l-10 12q-41 12 -49 13q-18 0 -31 -17z" />
<glyph unicode="j" horiz-adv-x="770" d="M35 1575q0 -45 41 -45q18 0 53 8t47 8h41q27 0 61.5 2t61.5 2h43q16 -8 127 -14q88 -4 125 -39q24 -141 24 -282v-11q0 -500 -256 -897q-84 -127 -215 -201q-47 -27 -69 -32l-2 -2q-4 0 -12.5 3t-12.5 3q-29 0 -29 -43q0 -35 31 -35q88 0 228 72q182 96 301 358 q45 100 49 111q86 254 86 731q0 178 -6 338l-25 28h-221q-190 0 -455 -18l-12 -10q-4 -20 -4 -35z" />
<glyph unicode="k" horiz-adv-x="882" d="M39 1593q14 -137 20.5 -206.5t6.5 -73.5q10 -156 16 -330t6 -367v-43q0 -25 -2 -59.5t-2 -60.5v-41q0 -10 2 -28.5t2 -29.5q0 -20 -3 -49t-7 -67.5t-6 -67.5t-2 -49q0 -100 28 -113l-2 2q10 -8 29 -8q10 0 28.5 2t26.5 2h2l4 -2h11q14 20 14 39q0 -8 -2 2t-6 39 q-2 35 -3 61.5t1 44.5q-2 74 -5 210.5t-10 334.5q-12 344 -12 545l107 74q16 0 51 20q41 23 51 23q8 0 20 -4q45 -131 90.5 -300t90.5 -380l149 -701q12 0 38 -2t40 -2q41 0 55 33q-27 82 -55.5 182.5t-56.5 218.5l-99 406q-23 86 -39 155.5t-26 126.5l-41 207 q-20 102 -25 133q35 29 125 60q92 33 129 61q-2 45 -55 45q-10 0 -32.5 -2t-35.5 -2q-10 0 -14 4q-121 -84 -344 -172q-45 -16 -76 -28.5t-49 -16.5q-6 14 -6 35q0 12 2 30.5t3 39t3 40t2 31.5v9q-30 24 -67 24h-3q-55 0 -67 -29v-6z" />
<glyph unicode="l" horiz-adv-x="757" d="M18 1225h33q20 -322 31 -611q0 -6 1 -21t3 -42q2 -18 2 -35v-27q0 -29 -6 -53q8 -31 8 -98q0 -14 -2 -42t-2 -40v2q-6 -43 -6 -129q0 -29 3 -61.5t7 -67.5l287 4l4 10h6l6 2q-2 -2 2 -12l338 8q14 45 15 78q0 35 -23 51l-238 -20q-72 -6 -107 -9l-36 -3q-92 0 -145 28 l-37 1235q-2 76 -3 134.5t-1 101.5q0 29 -39 28q-8 0 -22.5 -2t-22.5 -2q-8 2 -21 6l-16 -10q-2 -18 -3 -32.5t-1 -24.5q0 -20 4 -61.5t4 -61.5l2 -4q4 -51 6 -76t2 -22h-2q0 -29 12 -78q-4 -23 -43 -43z" />
<glyph unicode="m" horiz-adv-x="1320" d="M57 20q49 -16 66 -16q49 0 72 19q10 86 23 181t34 206q8 41 26.5 136t47.5 249q6 31 18 108.5t33 202.5q14 98 28.5 174t30.5 135q14 -6 27 -33l-2 2q31 -53 54.5 -94t39.5 -67h-2q51 -131 55 -156q6 -25 17 -43q35 0 51 10q8 82 37 160q80 213 129 238 q145 -487 256 -1127l30 -182q8 -37 11.5 -58.5t6.5 -25.5v2q10 -41 42 -41q31 0 47 8h12q6 2 13 2l30 -10q-90 291 -200 813q-59 291 -106.5 493.5t-82.5 323.5q-10 0 -28.5 4t-26.5 4q-18 0 -37 -18l-78 -182l2 2q-23 -47 -45 -85t-45 -67q-66 94 -92 146 q-20 35 -32.5 58.5t-18.5 35.5v-2q-8 18 -13.5 30.5t-9.5 18.5l2 -2q-18 65 -55 65q-27 0 -48.5 -26.5t-25.5 -57.5q-10 -80 -19 -139t-14 -100q-35 -225 -98 -527q-53 -258 -94 -448t-68 -320z" />
<glyph unicode="n" horiz-adv-x="745" d="M33 1606q49 -829 49 -1239l-4 -353q27 -8 55 -8q35 0 62 14q-16 498 -31 748q-10 174 -15.5 285.5t-5.5 158.5q0 43 1 112t3 167q4 0 12.5 2t12.5 2q39 0 90 -14q66 -14 90 -19q31 -16 121 -47q80 -28 117 -57q37 -227 37 -520q0 -12 -1 -31t-1 -39t-1 -38.5t-1 -31.5 q0 -10 -3.5 -32.5t-3.5 -32.5q0 -12 7 -19q2 -10 2 -122q0 -180 -19 -453l23 -39q47 6 73.5 9t32.5 5l-30 1284q-4 129 -6.5 211t-4.5 119q-10 0 -34.5 5t-36.5 5q-37 0 -58 -39l4 -28v2q4 -31 8.5 -53.5t8.5 -38.5l-2 -8q-47 16 -109.5 37.5t-144.5 43.5q-195 55 -244 56 q-10 0 -27.5 -2t-25.5 -2z" />
<glyph unicode="o" horiz-adv-x="923" d="M39 707q2 -10 12 -21q0 -354 189 -592l110 -61q66 -33 121 -33q186 0 295 197q33 59 62.5 148t56.5 210q8 39 12 62.5t6 31.5q2 12 2 45v88q0 123 -4 210t-12 145q-31 193 -125 329q-121 172 -285 172q-102 0 -155 -34q-152 -102 -222 -324q-55 -176 -55 -397 q0 -12 1 -33t1 -43q0 -23 1 -43.5t1 -32.5v-2q-8 -18 -12 -22zM168 844q0 420 108 594q72 108 211 108q14 0 25.5 -1t22.5 -3h-3q113 -33 150 -129q111 -287 111 -584q0 -20 -7 -96q-20 -270 -36 -336q-47 -195 -181 -270q-45 -27 -90 -27q-102 0 -160 62q-82 88 -120 323 q-31 178 -31 359z" />
<glyph unicode="p" horiz-adv-x="686" d="M31 1620q14 -180 21 -393t7 -469q0 -342 -24 -754q35 -2 49 -3t6 -1q41 0 64 18q-6 293 -10.5 574.5t-6.5 560.5l31 29l-4 -2q57 35 101 59.5t79 40.5q193 96 264 162v-2q45 39 49 49q20 27 21 65q0 33 -28.5 56.5t-61.5 23.5l-301 -2q-20 0 -60.5 3t-60.5 3 q-80 0 -135 -18zM135 1413q0 18 3 54t3 55q33 14 74 18t80 6q6 0 19.5 4t21.5 4q6 0 19.5 -2t19.5 -2h102h3q43 0 75 -26q-25 -51 -193 -127q-147 -72 -215 -80q-12 45 -12 96z" />
<glyph unicode="q" horiz-adv-x="921" d="M41 1069q0 -262 133 -420q25 -29 59.5 -52.5t74.5 -40.5t83 -27.5t82 -10.5q27 0 70 6q-221 -233 -340 -352q-14 -20 -25.5 -34.5t-21.5 -24.5v2q-43 -37 -43 -88q51 -27 116 -27q12 0 32 1t39 3t37.5 3t31.5 1q41 -8 77 -8l410 12l2 62q-41 8 -113.5 12t-177.5 4h-90 h-123t-67 2q84 104 185 223t224 260q29 33 50.5 56.5t35.5 40.5q27 53 46.5 97t33.5 79q43 117 43 250q0 211 -119 379q-86 117 -180 149q-37 12 -127 12q-190 0 -260 -82q-29 -37 -51.5 -64.5t-36.5 -45.5q-39 -49 -65 -180q-25 -117 -25 -197zM158 1112q0 115 37 219 q47 127 129 176q53 33 155 33q135 0 201 -84q49 -66 76 -211q8 -45 12 -91t4 -95q0 -248 -139 -400q-43 -47 -135 -47q-70 0 -115 19q-74 29 -88 43q-68 57 -107 205q-30 113 -30 226v7z" />
<glyph unicode="r" horiz-adv-x="743" d="M33 4l121 -4q4 80 6 170t2 192q0 66 -1 165.5t-3 232.5t-2 231v166q94 72 186 119q61 27 92 43l6 -8q53 -180 88 -373t52 -403q24 -312 24 -445v-10q0 -78 64 -78h6l2 2h10q27 39 27 55q0 2 -13 123q-59 573 -147 1223q47 37 100 76q57 45 82 92q-20 43 -71 55 q-29 6 -97 6q-10 0 -27.5 2t-27.5 2h-23q-10 0 -20 -2h2q-31 -2 -53.5 -4t-38.5 -4q-297 -12 -336 -18q14 -174 21.5 -352.5t7.5 -364.5q0 -211 -9.5 -432t-29.5 -457zM154 1413q0 57 14 107l12 10q166 18 273 18h84q6 0 10 -2h12l12 -6h2v-2q-141 -135 -409 -229 q-10 35 -10 104z" />
<glyph unicode="s" horiz-adv-x="909" d="M41 43q0 -33 22 -43l170 4q37 0 91 55q43 45 63 91q113 240 160 950q8 137 24 162q33 184 117 245q35 20 60 31l-3 -2q25 10 46 10q8 0 26.5 -2t28.5 -2q45 0 45 62l-21 28l-47 6q-51 0 -96 -18q-72 -27 -104 -53q-96 -72 -148 -271q-10 -39 -24.5 -116.5t-32.5 -196.5 q-14 -84 -25 -131q-2 -35 -3 -59.5t-1 -40.5q-29 -424 -86 -562q-20 -51 -64 -81.5t-100 -32.5q-41 -2 -64.5 -4t-31.5 -4v-21z" />
<glyph unicode="t" horiz-adv-x="794" d="M6 1561q0 -14 17 -31q16 2 28 3t23 1q12 0 31.5 -2t41 -3t42 -3t32.5 -2q45 0 51 2q10 -303 16.5 -507t6.5 -314q0 -160 -7 -326t-22 -340l23 -35q8 0 22.5 -2t20.5 -2q41 0 74 20q-8 152 -12 422.5t-3 665.5l-2 422q37 6 80 6q31 0 60.5 -2t58.5 -6q8 2 14 3t12 1 q14 0 44 -5t44 -5q31 0 57.5 22.5t26.5 50.5q0 27 -24 33q-37 8 -41 12q-23 -12 -47 -12q-8 0 -58 12v-8l-2 4h-24v-10l-453 -10q8 0 -8 3t-57 7l-4 -6l-11 4l2 -2l-16 6q-10 -2 -23.5 -28.5t-13.5 -38.5z" />
<glyph unicode="u" horiz-adv-x="843" d="M39 391q0 -115 14 -166q20 -82 86 -137q45 -39 113 -39q84 -47 197 -47q8 0 27.5 2t27.5 2q16 0 39.5 -1t56.5 -3t55 -2h41q68 0 133 18l-18 895v25q2 10 2 25q0 33 -1 80t-3 110.5t-3 110.5t-1 79q0 66 5 131.5t15 135.5l-12 28q-100 0 -125 -8l-8 -20q0 -31 14 -60 q10 -166 16.5 -334.5t6.5 -343.5q0 -63 -1 -157t-3 -219v2q-4 -66 -5 -113t-3 -80q-6 -127 -7 -194q-12 -12 -51 -15q-14 -2 -29 -2q-14 0 -28 -2h2q-33 -2 -56.5 -3t-39.5 -1q-178 0 -267 64q-73 50 -73 179q0 122 53 363q70 307 144.5 537.5t160.5 388.5q-49 16 -74 16 h-14q-59 -72 -61 -116l-3 -2q-27 -70 -45 -95q-16 -51 -30.5 -94t-28.5 -80q-10 -29 -18.5 -48t-14.5 -34q-8 -23 -16 -56.5t-19 -76.5v2q-14 -43 -23 -74.5t-15 -54.5q-33 -104 -52.5 -167.5t-25.5 -86.5q-16 -70 -25.5 -134t-9.5 -128z" />
<glyph unicode="v" horiz-adv-x="917" d="M39 1616q20 -63 34.5 -109.5t24.5 -79.5q178 -711 215 -878q20 -92 34.5 -154.5t25.5 -95.5v2q16 -84 27.5 -145.5t19.5 -102.5q12 -53 74 -53q18 0 24 2q16 12 19.5 33.5t3.5 34.5q8 53 18 82q45 168 47 186q252 1178 279 1198q12 49 12 66q0 8 -4 24q-37 0 -41 2 q-41 0 -68 -26q0 -76 -20 -177q-10 -43 -18.5 -86t-18.5 -88q-33 -160 -58.5 -279.5t-43.5 -197.5q-10 -47 -16.5 -84t-10.5 -61v2q-37 -131 -64.5 -246t-48.5 -215q-27 111 -48.5 198.5t-41.5 157.5v-2q-45 203 -79.5 353.5t-57.5 250.5q-8 53 -12 84q-18 74 -31 111 q-51 197 -68 309q-4 0 -14 -2t-14 -2t-6 2h-7l-8 6h-10q-4 2 -8 2q-18 0 -41 -22z" />
<glyph unicode="w" horiz-adv-x="1263" d="M55 1589q10 -29 21.5 -55.5t21.5 -52.5v2q98 -463 158.5 -758t83.5 -430q8 -43 15 -75t12 -54q4 -29 10 -69t12 -93l84 -4q20 59 38.5 116.5t39.5 116.5q47 137 98 224q39 -68 74 -157t63 -202v2q8 -86 43 -86q20 0 37 6q33 14 33 89l2 4q0 49 21 69q55 199 141 715 q78 461 168 709l-17 28q-10 0 -30.5 2t-30.5 2q-66 0 -92 -20q-6 -211 -62 -520q-41 -240 -62.5 -369t-25.5 -149v2q-6 -31 -10 -53.5t-6 -39.5q-8 -31 -15.5 -53t-11.5 -37q-10 -45 -17 -77.5t-11 -55.5q-29 66 -51.5 126.5t-43.5 113.5q-14 39 -23 68.5t-15 50.5 q-4 10 -6.5 17t-4.5 11q-8 41 -24 58q-33 0 -47 -15q-70 -57 -109 -217q-41 -152 -61 -227q-66 260 -86 389q-10 61 -16.5 107.5t-10.5 76.5q-14 96 -31 152q-29 141 -43 216t-16 85q-14 86 -21.5 162t-7.5 141q0 4 2 6v6q-6 31 -53 31q-4 0 -14.5 -2t-14.5 -2 q-74 0 -88 -31z" />
<glyph unicode="x" horiz-adv-x="972" d="M43 4l152 2q10 115 69 250v-2q92 190 111 272l-2 -4q14 27 23.5 45.5t17.5 32.5q14 35 23 61.5t16 45.5q14 29 23 51t16 39q55 -135 97 -233.5t70 -164.5q109 -254 142 -389q25 -10 55 -10q41 0 102 27q-90 156 -193 385t-222 538q41 106 53 158q6 20 25 49 q20 29 40.5 74t43.5 106q10 25 14 49q23 106 112 242q-12 0 -42.5 5t-47.5 5q-43 0 -69 -24q-53 -193 -80 -260l2 4q-59 -195 -111 -281l-4 4q-31 84 -55.5 146.5t-44.5 103.5q-66 154 -78 256l-25 41q-14 0 -42.5 4t-43.5 4q-29 0 -57 -28q55 -96 117 -240 q27 -63 51.5 -124.5t50.5 -123.5q23 -51 41.5 -89t30.5 -64l-2 2q10 -27 10 -41t-12 -41q-72 -168 -122 -294t-83 -212q-41 -100 -84 -182t-88 -148v-47z" />
<glyph unicode="y" horiz-adv-x="817" d="M35 1602l4 -13q188 -205 256 -293q43 -59 43 -98q0 -18 -1 -46t-3 -65q-2 -35 -2 -63v-45q0 -51 1 -127t3 -178q6 -203 6 -303q0 -123 -4 -211t-12 -148q27 -12 61 -12q29 0 84 23q-16 287 -24.5 499.5t-8.5 356.5q0 94 2 181t6 165q147 223 359 368v31q-51 14 -117 14 q-10 0 -18 -2h-17q-170 -225 -262 -301h-4q-152 197 -209 289q-14 0 -44 4t-44 4q-47 0 -55 -30z" />
<glyph unicode="z" horiz-adv-x="831" d="M33 8q47 0 117.5 -1t166.5 -3q98 -2 170 -3t119 -1h125l29 31q-4 8 -6 55q-4 35 -29 47q-170 -43 -336 -43q-129 0 -172 16q10 59 28.5 122t41.5 132q88 252 92 256q70 209 86 246l-2 -2q23 49 34 75t19 38q23 53 39 93t27 69q70 162 129 280.5t110 194.5l-18 16 q-76 4 -146.5 6t-140.5 2h-151h-17q-8 0 -22 -2h-39q-4 -2 -8 -2t-9 -2q-31 10 -67 10q-39 0 -47 -32q4 -29 7 -54.5t3 -48.5q164 35 272 35q47 0 95.5 -3t97.5 -7q-16 -47 -28.5 -81t-22.5 -56l2 2l-9 -23l2 2q-16 -35 -29.5 -61.5t-21.5 -42.5q-63 -133 -129 -303 q-12 -33 -39.5 -110t-72.5 -200q-14 -35 -23.5 -61.5t-17.5 -42.5q-41 -111 -64.5 -172.5t-32 -77.5t-13.5 -27.5t-9 -19.5q-29 -76 -37 -113l2 2q-41 -78 -55 -135z" />
<glyph unicode="{" horiz-adv-x="450" d="M6 750q80 -10 131 -193q41 -147 41 -256v-287q0 -217 172 -217h82v82h-78q-78 0 -78 258v197q-4 119 -30 190q-10 29 -19.5 58.5t-19.5 58.5q-35 84 -57 98q27 14 57 86q10 27 19.5 52.5t19.5 52.5q35 86 35 172v287q0 172 75 172h78v79h-82q-172 0 -172 -219v-291 q0 -104 -41 -223q-51 -150 -133 -157z" />
<glyph unicode="|" horiz-adv-x="532" d="M231 -492h88v2024h-88v-2024z" />
<glyph unicode="}" horiz-adv-x="450" d="M6 1561v79h82q172 0 172 -219v-291q0 -104 41 -223q51 -150 133 -157q-80 -10 -131 -193q-41 -147 -41 -256v-287q0 -217 -172 -217h-82v82h78q78 0 78 258v197q2 119 31 190q10 29 19 58.5t19 58.5q35 84 58 98q-27 14 -58 86q-10 27 -19 52.5t-19 52.5q-35 86 -35 172 v287q0 172 -76 172h-78z" />
<glyph unicode="~" horiz-adv-x="1069" d="M0 604h74q25 172 157 172q59 0 140 -33l202 -106q126 -68 222 -68q57 0 106 20.5t85 56.5t56.5 85t22.5 109h-76q-23 -172 -158 -172q-57 0 -137 32l2 -2l-209 111q-137 66 -217 65q-123 0 -194.5 -73.5t-75.5 -196.5z" />
<glyph unicode="&#xa1;" horiz-adv-x="374" d="M37 -10h209v100q-41 4 -51 23q-6 8 -7 59l-16 1141h-70l-6 -1141q0 -51 -6 -59q-10 -16 -53 -23v-100zM76 1544q0 -102 61 -102q63 0 64 102q-1 94 -64 94q-61 0 -61 -94z" />
<glyph unicode="&#xa2;" horiz-adv-x="792" d="M182 918q0 -369 197 -431v-90h82v86q117 13 209 144l-62 69q-66 -117 -147 -123v684q72 -23 119 -88l59 25l-49 209l-64 -10l-28 -56l-37 13v106h-82v-108q-197 -74 -197 -430zM285 928q0 166 30 239q14 39 64 78v-661q-94 82 -94 344z" />
<glyph unicode="&#xa3;" horiz-adv-x="753" d="M6 -4q106 8 190.5 11t147.5 3q80 0 158 -3t155 -11l13 4l73 131l-59 37q-51 -76 -106 -76q-20 0 -52 2t-73 6t-73 7.5t-52 3.5q-100 0 -205 -19q29 35 48 62.5t34 46.5v-2q188 254 188 487q0 12 -3 43t-7 82q-8 72 -15.5 121t-11.5 76h217v100h-256q-4 10 -20 49t-45 105 q-49 111 -49 151q0 123 147 123q102 0 230 -141l65 18l-37 209h-67l-17 -41q-98 55 -172 55q-111 0 -180 -57q-78 -61 -78 -168q0 -61 41 -156l74 -147h-195v-100h234q8 -59 13 -104.5t9 -74.5q12 -104 13 -127q0 -197 -105 -358q-61 -100 -172 -235v-113z" />
<glyph unicode="&#xa4;" horiz-adv-x="1034" d="M51 1128l142 -141q-96 -121 -97 -274q0 -172 94 -273l-135 -133l64 -61l131 131q119 -94 278 -94q154 0 279 94l131 -131l61 61l-135 133q96 115 97 273q0 166 -97 274l140 141l-66 64l-137 -137q-133 92 -273 92q-143 0 -274 -92l-135 137zM182 713q0 145 99 248 q100 100 247 100q141 0 243.5 -102.5t102.5 -245.5q0 -141 -102 -244q-100 -100 -244 -100q-145 0 -245 98q-100 100 -101 246z" />
<glyph unicode="&#xa5;" horiz-adv-x="638" d="M25 834h247l-2 -676q0 -49 -20 -64q-14 -10 -62 -16v-78h265v78q-47 6 -62 16q-18 14 -18 64l2 676h248v92h-248v123h248v92h-248v184l168 170v-2q57 51 80 55v80h-230v-80q66 -4 66 -14t-133 -131q-119 117 -119 129q0 10 55 16v80h-237v-80q47 -6 92 -53l155 -170v-184 h-247v-92h247v-123h-247v-92z" />
<glyph unicode="&#xa6;" horiz-adv-x="233" d="M78 -74h88v707h-88v-707zM78 932h88v710h-88v-710z" />
<glyph unicode="&#xa7;" horiz-adv-x="585" d="M8 295l10 -266h54l28 37q14 -12 21.5 -18.5t9.5 -8.5v2l10 -8h-2q70 -58 170 -58q57 0 106.5 20.5t83 56.5t53 86t19.5 110q0 63 -41 135q-41 70 -72.5 120t-54.5 85q18 -6 31 -6q55 0 91 37.5t36 95.5q0 39 -61 159l-164 320q-111 215 -111 266q0 88 70 88 q78 0 164 -196h67l-16 264h-53l-29 -49q-78 74 -160 73q-70 0 -110 -59q-35 -53 -35 -127q0 -111 113 -291q-14 0 -19.5 3t-19.5 3q-53 0 -93 -73q-33 -59 -32 -121q0 -53 32 -117q4 -8 20.5 -32.5t45.5 -69.5l186 -287q113 -174 113 -225q0 -74 -49 -126t-123 -52 q-88 0 -145 75q-33 43 -78 154h-66zM174 997q0 25 17 49.5t42 24.5q43 0 76 -63l117 -215q27 -47 27 -72q0 -59 -62 -59q-37 0 -82 75l-98 164q-37 61 -37 96z" />
<glyph unicode="&#xa8;" horiz-adv-x="747" d="M184 1729q0 -107 76 -107q72 0 72 107q0 109 -72 108q-76 0 -76 -108zM416 1729q-1 -107 71 -107q74 0 74 107q0 109 -74 108q-72 0 -71 -108z" />
<glyph unicode="&#xa9;" horiz-adv-x="1533" d="M20 739q0 -311 218 -526q219 -213 530 -213q309 0 528 213q219 215 220 526q0 311 -220 525q-219 215 -528 215q-313 0 -530 -215q-217 -211 -218 -525zM131 739q0 264 184 453q187 186 453 186t452.5 -186t186.5 -453q0 -266 -186.5 -452.5t-452.5 -186.5 q-264 0 -450.5 186.5t-186.5 452.5zM381 727q0 -186 98 -309q109 -133 289 -133q289 0 336 323l-74 -6q-49 -242 -229 -242q-139 0 -209 119q-57 96 -57 248q0 401 258 401q176 0 243 -280l54 8v338h-54q-35 -47 -59 -47q-18 0 -37 8q-117 43 -176 43q-174 0 -285 -154 q-98 -139 -98 -317z" />
<glyph unicode="&#xaa;" horiz-adv-x="1110" d="M78 1067q0 -160 31 -240q49 -127 180 -127q133 0 182 127q31 80 31 240q0 135 -43 246q-59 152 -170 151q-109 0 -168 -151q-43 -115 -43 -246zM178 1067q0 152 37 242v-2q35 65 74 65q41 0 76 -65v2q37 -90 36 -242q0 -272 -112 -272q-111 0 -111 272z" />
<glyph unicode="&#xab;" horiz-adv-x="800" d="M92 727l236 -405h100l-233 405l219 371h-101zM369 727l235 -405h101l-234 405l217 371h-100z" />
<glyph unicode="&#xac;" horiz-adv-x="1112" d="M57 567h906v-280h114v391h-1020v-111z" />
<glyph unicode="&#xad;" horiz-adv-x="391" d="M23 559h94l22 35h174l78 125h-102l-19 -31h-168z" />
<glyph unicode="&#xae;" horiz-adv-x="954" d="M6 1188q0 -186 139 -320q140 -131 330 -131t330 129q139 133 139 322q0 184 -141 317q-143 133 -328 133q-182 0 -328 -133q-141 -133 -141 -317zM82 1188q0 160 115 268q118 109 278 109q158 0 277 -109q119 -106 118 -268q0 -164 -116 -270q-115 -106 -279 -107 q-166 0 -278 107q-115 109 -115 270zM242 938h264v41q-51 6 -63.5 20.5t-12.5 63.5v119q66 0 88 -37q14 -18 27 -84q14 -61 30 -86q28 -37 87 -37q98 0 108 141h-45q-6 -66 -29 -65q-16 0 -30 39q-35 88 -105 141q76 16 103 37q45 31 45 94q0 131 -222 131h-245v-43 q49 -6 57 -14q18 -12 18 -56v-286q0 -45 -15 -59.5t-60 -18.5v-41zM430 1227v112q0 74 68 74q84 0 84 -98q0 -88 -111 -88h-41z" />
<glyph unicode="&#xaf;" horiz-adv-x="526" d="M35 1333h479v111h-479v-111z" />
<glyph unicode="&#xb1;" horiz-adv-x="1112" d="M59 10h1020v115h-1020v-115zM59 565h453v-334h117v334h450v117h-450v334h-117v-334h-453v-117z" />
<glyph unicode="&#xb4;" horiz-adv-x="960" d="M465 1669h117l311 301h-152z" />
<glyph unicode="&#xb6;" horiz-adv-x="804" d="M70 1147q0 -184 86 -295q76 -100 254 -172v-1047h94v1907h90v-1907h92v1907h94v100h-131q-256 0 -409 -116q-170 -129 -170 -377z" />
<glyph unicode="&#xb7;" horiz-adv-x="356" d="M117 662q0 -109 69 -109q74 0 74 109q0 117 -74 116q-69 1 -69 -116z" />
<glyph unicode="&#xb8;" horiz-adv-x="514" d="M96 -313q68 -27 137 -27q63 0 123 37q66 43 66 106q0 104 -127 111l39 131h-101l-65 -238q70 25 96 25q49 0 49 -33q0 -49 -84 -49q-37 0 -104 12z" />
<glyph unicode="&#xbb;" horiz-adv-x="800" d="M121 1098l233 -406l-219 -370h101l221 370l-236 406h-100zM395 1098l234 -406l-217 -370h100l219 370l-235 406h-101z" />
<glyph unicode="&#xbf;" horiz-adv-x="471" d="M45 256q0 -102 53 -172q57 -76 158 -76q10 0 31.5 4t31.5 4q18 0 78 -24l72 196l-80 31q-66 -111 -125 -110q-59 0 -92 51q-27 45 -27 106q0 139 129 398q53 106 113 290q66 207 66 299v80h-82q-4 -207 -92 -372q-27 -51 -60 -128t-72 -182q-43 -115 -43 -116h2 q-61 -145 -61 -279zM346 1573q0 -92 57 -92t58 92q-1 84 -58 84t-57 -84z" />
<glyph unicode="&#xc0;" d="M39 12q98 0 129 8l27 99q82 23 174 34t180 21q20 -6 141 -12q98 -2 121 -23q14 -12 20 -57q10 -53 21 -70q20 -12 39 -12q31 0 49 8h12q6 2 11 2l10 17q-123 481 -198 778t-101 416l-80 368q-12 55 -66 56h-10q-27 -23 -39 -56q-4 -10 -8 -26.5t-8 -40.5l-2 -2 q0 -51 -29 -80l8 -10q-55 -199 -94 -347.5t-61 -248.5v2q-20 -66 -37 -116t-27 -83q-61 -209 -107 -364.5t-75 -260.5zM152 2107l321 -321h119l-285 321h-155zM233 283q29 98 49.5 170.5t32.5 121.5q82 309 134.5 505t78.5 284q4 -20 5.5 -33.5t3.5 -23.5q16 -66 29.5 -115 t23.5 -84q70 -262 119 -469t82 -360l-553 -9l-2 13h-3z" />
<glyph unicode="&#xc1;" d="M39 12q98 0 129 8l27 99q82 23 174 34t180 21q20 -6 141 -12q98 -2 121 -23q14 -12 20 -57q10 -53 21 -70q20 -12 39 -12q31 0 49 8q29 0 37 2q-240 936 -301 1211q-29 123 -48.5 215t-33.5 153q-12 55 -66 56h-10q-27 -23 -39 -56q-4 -10 -8 -26.5t-8 -40.5l-2 -2 q0 -51 -29 -80l8 -10q-55 -199 -94 -347.5t-61 -248.5v2q-16 -59 -31.5 -108.5t-32.5 -90.5l2 2q-18 -57 -24 -90v2q-47 -166 -86 -299t-74 -240zM231 283q31 98 52.5 169.5t33.5 122.5q86 324 137 518.5t74 266.5q4 -16 6.5 -29.5t4.5 -21.5q33 -123 57.5 -214t40.5 -153 q88 -338 154 -663l-553 -9l-2 13h-5zM481 1786h119l324 321h-158z" />
<glyph unicode="&#xc2;" d="M39 12q98 0 129 8l27 99q82 23 174 34t180 21q10 -2 46 -4t95 -6q98 -6 121 -25q14 -12 20 -57q10 -53 21 -70q20 -12 39 -12q31 0 49 8h12q6 2 11 2l10 17q-117 451 -189.5 747.5t-107.5 446.5q-29 123 -48.5 215t-33.5 153q-12 53 -66 53h-10q-33 -25 -45 -73 q-4 -14 -6 -26.5t-6 -26.5q0 -43 -13 -62l-14 -18l6 -6q-55 -199 -94 -347.5t-61 -248.5v2q-59 -195 -86 -289v2q-45 -158 -85 -291t-75 -246zM229 283q33 94 54.5 165.5t33.5 124.5q92 350 144.5 545t66.5 242q23 -90 43.5 -172t40.5 -160v2q66 -256 110 -442.5t69 -308.5 l-553 -9l-2 13h-7zM317 1786h89l116 186l129 -186h86l-155 287h-101z" />
<glyph unicode="&#xc3;" d="M39 12q98 0 129 8l27 99q82 23 174 34t180 21q10 -2 46 -4t95 -6q98 -6 121 -25q14 -12 20 -57q10 -53 21 -70q20 -12 39 -12q31 0 49 8q29 0 37 2q-233 909 -301 1211q-29 123 -48.5 215t-33.5 153q-12 53 -66 53h-10q-27 -23 -39 -55q-8 -18 -16 -65l-2 -2 q0 -53 -29 -82l8 -11q-20 -61 -40.5 -134.5t-43.5 -159.5q-16 -76 -34.5 -150t-36.5 -149v2q-16 -59 -31.5 -108.5t-32.5 -90.5l2 2q-18 -57 -24 -90v2q-47 -166 -86 -299t-74 -240zM231 283q31 98 52.5 169.5t33.5 122.5q86 324 137 518.5t74 266.5q4 -16 6.5 -29.5 t4.5 -23.5q33 -123 57.5 -214.5t40.5 -152.5q47 -180 85 -344t69 -317l-553 -9l-2 13h-5zM360 1796h66q0 129 49 129q18 0 37 -24h-2q27 -37 59 -72q39 -45 76 -45q106 0 113 231h-64q-10 -145 -51 -145q-18 0 -72 72v-3q-49 70 -92 70q-115 0 -119 -213z" />
<glyph unicode="&#xc4;" d="M39 12q98 0 129 8l27 99q82 23 174 34t180 21q10 -2 46 -4t95 -6q98 -6 121 -25q14 -12 20 -57q10 -53 21 -70q20 -12 39 -12q31 0 49 8q29 0 37 2q-233 909 -301 1211q-29 123 -48.5 215t-33.5 153q-12 53 -66 53h-10q-27 -23 -39 -55q-8 -18 -16 -65l-2 -2 q0 -53 -29 -82l8 -8q-55 -199 -94 -347.5t-61 -248.5v2q-16 -59 -31.5 -108.5t-32.5 -90.5l2 2q-18 -57 -24 -90v2q-47 -166 -86 -299t-74 -240zM231 283q31 98 52.5 169.5t33.5 122.5q86 324 137 518.5t74 266.5q4 -16 6.5 -29.5t4.5 -23.5q33 -123 57.5 -214.5 t40.5 -152.5q47 -180 85 -344t69 -317l-553 -9l-2 13h-5zM334 1903q0 -119 78 -119q76 0 75 119q0 119 -75 118q-78 0 -78 -118zM573 1903q0 -119 76 -119t76 119t-76 118q-76 0 -76 -118z" />
<glyph unicode="&#xc5;" d="M39 12q98 0 129 8l27 99q82 23 174 34t180 21q20 -6 141 -12q98 -2 121 -23q14 -12 20 -57q10 -53 21 -70q20 -12 39 -12q31 0 49 8q29 0 37 2q-240 936 -301 1211q-29 123 -48.5 215t-33.5 153q-12 55 -66 56h-10q-27 -23 -39 -56q-4 -10 -8 -26.5t-8 -40.5l-2 -2 q0 -51 -29 -80l8 -10q-55 -199 -94 -347.5t-61 -248.5v2q-16 -59 -31.5 -108.5t-32.5 -90.5l2 2q-18 -57 -24 -90v2q-47 -166 -86 -299t-74 -240zM231 283q31 98 52.5 169.5t33.5 122.5q82 313 135 509t76 276q31 -129 54.5 -219t40.5 -148q35 -125 77.5 -302t90.5 -412 l-553 -9l-2 13h-5zM373 1958q0 -70 50 -121t120 -51t120 51t50 121t-50.5 122t-119.5 52q-35 0 -66 -13.5t-54.5 -37t-36.5 -55t-13 -68.5zM459 1958q0 37 23.5 61.5t60.5 24.5t60.5 -24.5t23.5 -61.5t-23.5 -60.5t-60.5 -23.5t-60.5 23.5t-23.5 60.5z" />
<glyph unicode="&#xc6;" horiz-adv-x="1343" d="M39 12q102 0 129 8l29 99q41 10 85 19t93 16q45 4 89 10t89 10q25 -8 141 -10q96 -4 121 -25q16 -14 23 -57q10 -53 20 -70q20 -12 39 -12q31 0 49 8q31 0 39 2l-43 164q68 -68 170 -119q113 -55 199 -55q20 20 20 37v10l-6 12q-231 86 -395 355q-20 41 -32.5 72.5 t-20.5 54.5q-39 98 -60.5 158.5t-30.5 86.5q-27 100 -45 174t-30 125v-2q-4 41 -6.5 71t-2.5 50l-2 4q0 12 -3 37t-3 37q0 74 62 86q162 31 344 31q12 0 35.5 -2t35.5 -2q51 0 89 24q4 12 4 27q0 23 -21 37q-18 0 -56 2t-57 2q-23 0 -56.5 -1t-80.5 -3q-45 -2 -80 -2h-55 q-51 0 -92 2t-70 6q4 23 39 49q131 8 254 12t242 4l26 19q4 12 5 26q0 25 -21 39l-571 -8q-10 -2 -21 -2q-10 0 -20 -2q-33 -6 -33 -37q-16 49 -64 49h-10q-27 -20 -39 -55q-8 -18 -16 -65l-2 -2q0 -53 -29 -82l8 -9q-43 -121 -86 -295q-18 -76 -36.5 -149.5t-34.5 -149.5v3 q-16 -59 -31.5 -108.5t-32.5 -90.5l2 2q-18 -57 -24 -90v2q-41 -141 -81 -274.5t-81 -262.5zM233 283q63 197 86 290q84 319 137 514t76 269q4 -16 6.5 -29.5t4.5 -23.5q33 -123 57.5 -214.5t40.5 -150.5q51 -201 90 -364.5t66 -294.5l-557 -9l-2 13h-5z" />
<glyph unicode="&#xc7;" horiz-adv-x="714" d="M33 1606q0 -885 123 -1170q43 -102 131 -217v2q47 -72 51 -74q45 -35 92 -64.5t94 -53.5l-106 -168q145 0 145 -43q0 -45 -61 -45q-45 0 -140 51l-53 -68q115 -78 199 -78q168 0 168 140q0 76 -103 110l45 74q41 -8 89 10q0 45 -11 56q-195 63 -227 104q-23 29 -39 48.5 t-27 33.5q-18 23 -30.5 38t-16.5 23v-2q-47 82 -85 179.5t-64 214.5q-102 453 -103 653q0 94 35 158q80 37 189 36q16 0 38.5 -1t51.5 -3q31 -2 53 -2h39q147 0 147 56v8l-2 8l-16 20h-33q-12 2 -22 2h-13q-88 0 -256 -6q-86 -2 -149.5 -3t-106.5 -1z" />
<glyph unicode="&#xc8;" horiz-adv-x="770" d="M35 1595q0 -14 1 -32.5t3 -40.5q2 -29 3 -47.5t1 -28.5q2 -18 2 -33v-22v2q41 -655 209 -1018l-2 2q125 -309 440 -371q33 -6 47 -6q18 18 19 37q0 10 -4 22q-221 84 -389 357q-20 41 -33 72.5t-21 54.5q-76 199 -115.5 337t-48.5 224q-4 70 -6 104l-2 4q0 12 -4 37 t-4 37q0 74 62 86q150 31 337 31q12 0 36 -2t36 -2q51 0 88 24q2 4 2 29t-18 37q-18 0 -55 2t-56 2q-23 0 -56.5 -1t-78.5 -3t-80 -2h-55q-92 0 -160 6q6 23 39 49q129 8 250 12.5t237 4.5l29 20q4 12 4 27q0 25 -20 39l-566 -9q-10 -2 -20 -2q-8 0 -18 -2q-33 -6 -33 -37z M39 2107l319 -321h119l-282 321h-156z" />
<glyph unicode="&#xc9;" horiz-adv-x="770" d="M35 1595q0 -14 1 -32.5t3 -40.5q2 -29 3 -47.5t1 -28.5q2 -18 2 -33v-22v2q41 -655 209 -1018l-2 2q125 -309 440 -371q33 -6 47 -6q18 18 19 37q0 10 -4 22q-221 84 -389 357q-20 41 -33 72.5t-21 54.5q-76 199 -115.5 337t-48.5 224q-4 70 -6 104l-2 4q0 12 -4 37 t-4 37q0 74 62 86q150 31 337 31q12 0 36 -2t36 -2q51 0 88 24q2 4 2 29t-18 37q-18 0 -55 2t-56 2q-23 0 -56.5 -1t-78.5 -3t-80 -2h-55q-92 0 -160 6q6 23 39 49q129 8 250 12.5t237 4.5l29 20q4 12 4 27q0 25 -20 39l-566 -9q-10 -2 -20 -2q-8 0 -18 -2q-33 -6 -33 -37z M309 1786h119l322 321h-158z" />
<glyph unicode="&#xca;" horiz-adv-x="770" d="M35 1595q0 -14 1 -32.5t3 -40.5q2 -29 3 -47.5t1 -28.5q2 -18 2 -33v-22v2q41 -655 209 -1018l-2 2q125 -309 440 -371q33 -6 47 -6q18 18 19 37q0 10 -4 22q-221 84 -389 357q-20 41 -33 72.5t-21 54.5q-76 199 -115.5 337t-48.5 224q-4 70 -6 104l-2 4q0 12 -4 37 t-4 37q0 74 62 86q150 31 337 31q12 0 36 -2t36 -2q51 0 88 24q2 4 2 29q0 23 -18 35q-18 0 -55 2t-56 2q-23 0 -56.5 -1t-78.5 -3t-80 -2h-55q-51 0 -91 2t-69 6q6 23 39 49q129 8 250 12.5t237 4.5l29 20q4 12 4 27q0 29 -20 36l-566 -6q-10 -2 -20 -2q-8 0 -18 -2 q-33 -6 -33 -37zM164 1786h88l117 186l127 -186h86l-154 287h-100z" />
<glyph unicode="&#xcb;" horiz-adv-x="770" d="M35 1595q0 -14 1 -33.5t3 -41.5q2 -29 3 -47.5t1 -28.5q2 -16 2 -31v-22v2q41 -655 209 -1018l-2 2q125 -309 440 -371q33 -6 47 -6q18 18 19 37q0 10 -4 22q-221 84 -389 357q-20 41 -33 72.5t-21 54.5q-76 197 -115.5 335t-48.5 224q-4 74 -6 106l-2 4q0 12 -4 36 t-4 36q0 76 62 88q150 31 337 31q12 0 36 -2t36 -2q51 0 88 24q2 4 2 27q0 25 -18 37q-18 0 -55 2t-56 2q-23 0 -56.5 -1t-78.5 -3t-80 -2h-55q-51 0 -91 2t-69 6q6 23 39 49q129 8 250 12.5t237 4.5l29 20q4 12 4 25q0 25 -20 38l-566 -8q-10 -2 -20 -2q-8 0 -18 -2 q-33 -6 -33 -35zM190 1903q0 -119 78 -119q74 0 74 119t-74 118q-78 0 -78 -118zM428 1903q0 -119 76 -119q74 0 74 119t-74 118q-76 0 -76 -118z" />
<glyph unicode="&#xcc;" horiz-adv-x="239" d="M-254 2107l309 -321h117l-272 321h-154zM51 1632q18 -625 19 -989v-387v-106t-2 -115l18 -31q16 -2 28.5 -3t22.5 -1q37 0 43 31q2 6 2 116q0 117 -18 596q-8 186 -11 335t-3 261v45q0 29 2 66t2 63v48v28q0 16 -2 35l-11 12q-47 12 -55 13q-18 0 -35 -17z" />
<glyph unicode="&#xcd;" horiz-adv-x="239" d="M41 1786h115l313 321h-152zM51 1632q18 -625 19 -989v-395v-101q0 -53 -2 -112l16 -31q31 -2 44 -3t9 -1q37 0 43 31q2 6 2 116q0 100 -4 249t-12 347.5t-12 347t-4 248.5v31q0 20 2 47v78v129l-11 12q-47 12 -57 13q-16 0 -33 -17z" />
<glyph unicode="&#xce;" horiz-adv-x="239" d="M-88 1786h84l110 186l123 -186h84l-149 287h-98zM49 1632q10 -299 15.5 -544.5t5.5 -444.5v-387v-106t-2 -115l16 -31q31 -2 44 -3t9 -1q12 0 25 4q18 8 20 66q-2 -39 -2 -21v98q0 100 -4 249t-12 347.5t-12.5 347t-4.5 248.5v45q0 29 2.5 66t2.5 63v48v28q0 16 -2 35 l-9 12q-27 4 -40 7.5t-17 3.5q-20 0 -35 -15z" />
<glyph unicode="&#xcf;" horiz-adv-x="237" d="M-84 1903q0 -119 74 -119q70 0 69 119q0 119 -69 118q-74 0 -74 -118zM49 1630q10 -299 15.5 -543.5t5.5 -443.5v-391v-105q0 -53 -2 -112l16 -31q33 -2 45 -3t8 -1q23 0 33 10t10 137q0 100 -4 249t-12 347.5t-12.5 347t-4.5 248.5v45q0 29 2.5 64t2.5 61v45v33 q0 18 -2 35l-9 12q-49 12 -57 13q-18 0 -35 -17zM141 1903q0 -119 74 -119t74 119t-74 118q-74 0 -74 -118z" />
<glyph unicode="&#xd0;" horiz-adv-x="935" d="M4 713q0 -4 2 -15v-24l14 -19q23 2 66 2h107q2 -33 2 -77v-101v-229q0 -98 -2 -170h-11q0 -76 76 -76q14 0 41 3t39 3q14 0 31 -6h41q27 0 59.5 -2t56.5 -2h41q258 0 328 106q35 51 35 166q0 152 -115 459q-104 272 -244 508q-193 319 -372 401q-39 -27 -39 -104 q0 10 3 -25.5t11 -121.5q4 -57 6 -121t4 -135l6 -375q-74 6 -143 6q-10 0 -19.5 -1t-19.5 -3q-2 -10 -3 -19.5t-1 -17.5v-10zM242 1493v2q111 -51 293 -346q76 -123 159 -307q84 -197 113 -324q25 -117 24 -225q1 -82 -22 -154q-63 -59 -213 -59h-94q-215 0 -223 20l6 4v56 q0 35 -2 80q-2 47 -2 82v59h-21q20 84 27 276q94 -2 191 -7t202 -15q0 20 -2 52t-2 44q-10 2 -18.5 3t-16.5 1q-14 0 -45 -2t-45 -2q-76 0 -262 19q0 117 -25 372q-12 123 -18 215.5t-4 155.5z" />
<glyph unicode="&#xd1;" horiz-adv-x="745" d="M33 1606q49 -829 49 -1239l-4 -353q27 -8 55 -8q35 0 62 14q-16 498 -31 748q-10 174 -15.5 285.5t-5.5 158.5q0 43 1 112t3 167q4 0 12.5 2t12.5 2q39 0 90 -14q66 -14 90 -19q31 -16 121 -47q80 -28 117 -57q37 -227 37 -520q0 -12 -1 -31t-1 -39t-1 -38.5t-1 -31.5 q0 -10 -3.5 -32.5t-3.5 -32.5q0 -12 7 -19q2 -10 2 -122q0 -180 -19 -453l23 -39q47 6 73.5 9t32.5 5l-30 1284q-4 129 -6.5 211t-4.5 119q-10 0 -34.5 5t-36.5 5q-37 0 -58 -39l4 -28v2q4 -31 8.5 -53.5t8.5 -38.5l-2 -8q-47 16 -109.5 37.5t-144.5 43.5q-195 55 -244 56 q-10 0 -27.5 -2t-25.5 -2zM164 1796h63q2 129 49 129q16 0 39 -24h-2q27 -35 41.5 -53.5t16.5 -20.5q38 -43 73 -43q109 0 113 231h-61q-10 -145 -54 -145q-16 0 -69 72v-3q-49 70 -92 70q-113 0 -117 -213z" />
<glyph unicode="&#xd2;" horiz-adv-x="923" d="M41 705q4 -10 10 -15q0 -358 187 -594q29 -16 55 -31.5t55 -31.5q66 -33 123 -33q184 0 295 199q33 59 62.5 148t56.5 210q8 39 12 62.5t6 31.5q2 12 2 45v90q0 266 -26 400q-41 227 -170 354q-109 104 -230 105q-102 0 -155 -35q-147 -100 -220 -326q-57 -174 -57 -399 q0 -12 1 -33t1 -43q0 -23 1 -43.5t1 -32.5v-2l-4 -8v-2q-6 -10 -6 -16zM102 2107l322 -321h119l-285 321h-156zM168 846q0 424 108 598q68 106 211 106q14 0 25.5 -1t22.5 -3h-3q113 -33 150 -129q111 -287 111 -586q0 -20 -7 -96q-23 -270 -36 -338q-45 -193 -181 -270 q-45 -27 -90 -27q-104 0 -160 62q-82 90 -120 325q-31 178 -31 359z" />
<glyph unicode="&#xd3;" horiz-adv-x="923" d="M41 705q4 -10 10 -15q0 -358 187 -594q29 -16 55 -31.5t55 -31.5q66 -33 123 -33q184 0 295 199q33 59 62.5 148t56.5 210q8 39 12 62.5t6 31.5q2 12 2 45v90q0 266 -26 400q-41 227 -170 354q-109 104 -230 105q-102 0 -155 -35q-147 -100 -220 -326q-57 -174 -57 -399 q0 -12 1 -33t1 -43q0 -23 1 -43.5t1 -32.5v-2l-4 -8v-2q-6 -10 -6 -16zM168 846q0 424 108 598q68 106 211 106q14 0 25.5 -1t22.5 -3h-3q113 -33 150 -129q111 -287 111 -586q0 -20 -7 -96q-23 -270 -36 -338q-45 -193 -181 -270q-45 -27 -90 -27q-104 0 -160 62 q-82 90 -120 325q-31 178 -31 359zM422 1786h119l323 321h-157z" />
<glyph unicode="&#xd4;" horiz-adv-x="923" d="M41 705q4 -10 10 -15q0 -358 187 -594q29 -16 55 -31.5t55 -31.5q66 -33 123 -33q184 0 295 199q33 59 62.5 148t56.5 210q8 39 12 62.5t6 31.5q2 12 2 45v88q0 268 -26 402q-41 227 -170 354q-106 102 -230 102q-109 0 -155 -32q-147 -96 -220 -326q-57 -174 -57 -399 q0 -12 1 -33t1 -43q0 -23 1 -43.5t1 -32.5v-2l-4 -8v-2q-6 -10 -6 -16zM168 846q0 424 108 598q68 106 211 106q14 0 25.5 -1t22.5 -3h-3q113 -33 150 -129q111 -287 111 -586q0 -20 -7 -96q-23 -274 -36 -338q-45 -193 -181 -270q-45 -27 -90 -27q-104 0 -160 62 q-82 90 -120 325q-31 178 -31 359zM293 1786h88l117 186l125 -186h90l-156 287h-100z" />
<glyph unicode="&#xd5;" horiz-adv-x="923" d="M41 705q4 -10 10 -15q0 -358 187 -594q29 -16 55 -31.5t55 -31.5q66 -33 123 -33q188 0 295 199q33 59 62.5 147t56.5 211q8 39 12 62.5t6 34t2 42.5v88q0 268 -26 402q-41 227 -170 354q-106 102 -230 102q-102 0 -155 -34q-150 -98 -222 -324q-55 -178 -55 -399 q0 -12 1 -33t1 -43q0 -23 1 -43.5t1 -32.5v-2l-4 -8v-2q-6 -10 -6 -16zM168 846q0 422 108 596q72 108 211 108q14 0 25.5 -1t22.5 -3h-3q113 -33 150 -129q111 -283 111 -586q0 -20 -7 -96q-23 -274 -36 -338q-45 -193 -181 -270q-45 -27 -90 -27q-104 0 -160 62 q-82 90 -120 325q-31 178 -31 359zM297 1796h63q2 129 50 129q16 0 39 -24h-3q14 -18 28.5 -37t29.5 -35q43 -45 76 -45q106 0 112 231h-63q-10 -145 -51 -145q-12 0 -72 72v-3q-49 70 -92 70q-113 0 -117 -213z" />
<glyph unicode="&#xd6;" horiz-adv-x="923" d="M41 705q4 -10 10 -15q0 -358 187 -594q29 -16 55 -31.5t55 -31.5q66 -33 123 -33q188 0 295 199q33 59 62.5 147t56.5 211q8 39 12 62.5t6 34t2 42.5v88q0 268 -26 402q-41 227 -170 354q-106 102 -230 102q-102 0 -155 -34q-150 -98 -222 -324q-55 -178 -55 -399 q0 -12 1 -33t1 -43q0 -23 1 -43.5t1 -32.5v-2l-4 -8v-2q-6 -10 -6 -16zM168 846q0 422 108 596q72 108 211 108q31 0 50 -6q16 -2 71 -41q51 -35 74 -86q111 -287 111 -586q0 -20 -7 -96q-23 -274 -36 -338q-45 -193 -181 -270q-45 -27 -90 -27q-104 0 -160 62 q-82 90 -120 325q-31 178 -31 359zM295 1903q0 -119 78 -119q76 0 76 119t-76 118q-78 0 -78 -118zM535 1903q-1 -119 75 -119q74 0 74 119t-74 118q-76 0 -75 -118z" />
<glyph unicode="&#xd7;" horiz-adv-x="1112" d="M53 80l97 -96l415 403l420 -403l96 96l-417 405l417 414l-96 98l-418 -417l-417 417l-97 -98l418 -414z" />
<glyph unicode="&#xd8;" horiz-adv-x="923" d="M27 0h84l75 168q8 -14 21.5 -31.5t30.5 -40.5q29 -16 56.5 -31.5t55.5 -31.5q66 -33 123 -33q186 0 293 199q33 59 62.5 147t56.5 209q10 45 15 68.5t5 25.5q2 8 2 41v92q0 461 -127 662l88 190h-86l-53 -118q-115 123 -250 122q-102 0 -155 -34q-147 -96 -220 -324 q-57 -174 -57 -397q0 -12 1 -33t1 -43q0 -23 1 -43.5t1 -32.5v-2l-4 -8v-2q-6 -10 -6 -17q4 -10 10 -14q0 -236 92 -432zM168 844q0 420 108 594q72 109 211 108q14 0 25.5 -1t22.5 -3h-3q45 -14 89.5 -50t58.5 -77l-467 -1009v10q-8 39 -12 67.5t-8 48.5q-25 156 -25 312z M248 297l469 1012q76 -230 76 -480q0 -20 -7 -96q-23 -274 -36 -336q-47 -195 -181 -270q-45 -27 -90 -27q-94 0 -151 54q-43 43 -80 143z" />
<glyph unicode="&#xd9;" horiz-adv-x="843" d="M39 393q0 -117 14 -166q23 -84 86 -139q45 -39 113 -39q84 -47 197 -47q8 0 27.5 2t27.5 2q16 0 39.5 -1t56.5 -3t55 -2h41q68 0 133 18l-18 900v24q2 10 2 25q0 33 -1 80t-3 110.5t-3 110.5t-1 80q0 66 5 132t15 136l-12 29q-100 0 -125 -9l-8 -20q0 10 14 -62 q2 -20 3 -35.5t1 -25.5q18 -301 19 -619q0 -63 -1 -157t-3 -219v2q-4 -66 -6 -114t-2 -81q-6 -127 -7 -194q-12 -12 -51 -15q-14 -2 -29 -2q-14 0 -28 -2h2q-33 -2 -56.5 -3t-39.5 -1q-178 0 -267 64q-74 51 -73 182q0 119 53 362q135 612 305 930q-49 16 -74 16h-14 q-57 -70 -61 -118l-3 -2q-8 -20 -15 -38t-15 -32q-4 -8 -8.5 -14t-6.5 -11l-43 -129q-35 -84 -49 -129q-8 -23 -16 -55.5t-19 -75.5v2q-14 -43 -23 -74.5t-15 -54.5q-33 -104 -52.5 -168.5t-25.5 -87.5q-16 -70 -25.5 -134t-9.5 -128zM246 2107l319 -321h121l-285 321h-155z " />
<glyph unicode="&#xda;" horiz-adv-x="847" d="M39 393q0 -117 14 -166q23 -84 86 -139q45 -39 115 -39q84 -47 197 -47q10 0 28.5 2t28.5 2q16 0 39.5 -1t56.5 -3t55 -2h41q68 0 136 18l-21 900v24q2 10 2 25q0 33 -1 80t-3 110.5t-3 110.5t-1 80q0 70 6 136t16 132l-14 29q-100 0 -127 -9l-8 -20q0 -25 16 -62 q10 -166 16.5 -335.5t6.5 -344.5q0 -63 -1 -157t-3 -219v2q-4 -66 -6 -114t-2 -81q-6 -127 -7 -194q-12 -12 -51 -15q-14 -2 -28 -2t-29 -2h2q-33 -2 -56.5 -3t-39.5 -1q-182 0 -271 64q-74 51 -73 182q0 78 28 233q133 684 334 1059q-53 16 -76 16h-14q-57 -70 -61 -118 l-2 -2q-8 -20 -15.5 -38t-15.5 -32q-4 -8 -8 -14t-7 -11q-16 -45 -27 -79.5t-20 -57.5q-16 -41 -27.5 -69.5t-19.5 -49.5q-20 -55 -32 -133l-101 -315q-53 -172 -53 -330zM569 1786h119l324 321h-158z" />
<glyph unicode="&#xdb;" horiz-adv-x="843" d="M39 393q0 -117 14 -166q23 -84 86 -139q45 -39 113 -39q84 -47 197 -47q8 0 27.5 2t27.5 2q16 0 39.5 -1t56.5 -3t55 -2h41q68 0 133 18l-18 900v24q2 10 2 23q0 33 -1 80t-3 110q-2 66 -3 113t-1 80q0 70 6 136t16 132l-14 26q-94 0 -125 -6l-8 -20q0 10 14 -62 q2 -20 3 -35.5t1 -25.5q18 -301 19 -619q0 -63 -1 -157t-3 -219v2q-4 -66 -6 -114t-2 -81q-6 -127 -7 -194q-12 -12 -51 -15q-14 -2 -29 -2q-14 0 -28 -2h2q-31 -2 -55.5 -3t-40.5 -1q-178 0 -267 64q-74 51 -73 182q0 119 53 362q135 612 305 930q-37 14 -74 14h-14 q-8 -8 -17.5 -22t-21.5 -35q-25 -47 -22 -61q-8 -20 -15.5 -36t-15.5 -30q-8 -16 -17 -29q-29 -86 -43 -129q-16 -43 -28.5 -74.5t-20.5 -52.5q-8 -23 -16 -56.5t-19 -76.5v2q-14 -43 -23 -74.5t-15 -54.5q-33 -104 -52.5 -168.5t-25.5 -87.5q-16 -70 -25.5 -134t-9.5 -128z M424 1786h86l119 186l125 -186h88l-154 287h-102z" />
<glyph unicode="&#xdc;" horiz-adv-x="843" d="M39 393q0 -117 14 -166q23 -84 86 -139q45 -39 113 -39q84 -47 197 -47q8 0 27.5 2t27.5 2q16 0 39.5 -1t56.5 -3t55 -2h41q68 0 133 18l-18 900v24q2 10 2 23q0 33 -1 80t-3 110q-2 66 -3 113t-1 80q0 66 5 131t15 135l-12 28q-100 0 -125 -8l-8 -20q0 10 3 -5.5 t11 -54.5q2 -20 3 -35.5t1 -25.5q18 -305 19 -619q0 -63 -1 -157t-3 -219v2q-4 -66 -6 -114t-2 -81q-6 -127 -7 -194q-12 -12 -51 -15q-14 -2 -29 -2q-14 0 -28 -2h2q-33 -2 -56.5 -3t-39.5 -1q-178 0 -267 64q-74 51 -73 182q0 119 53 362q70 309 144.5 539.5t160.5 388.5 q-49 16 -74 16h-14q-59 -72 -61 -116l-3 -2q-27 -70 -45 -95q-16 -51 -30.5 -94t-28.5 -80q-10 -29 -18.5 -48t-14.5 -34q-8 -25 -16 -58.5t-19 -74.5v2q-14 -43 -23 -74.5t-15 -54.5q-33 -106 -52.5 -169.5t-25.5 -86.5q-16 -70 -25.5 -134t-9.5 -128zM430 1903 q0 -119 78 -119q76 0 76 119t-76 118q-78 0 -78 -118zM670 1903q-1 -119 75 -119t76 119t-76 118q-76 0 -75 -118z" />
<glyph unicode="&#xdd;" horiz-adv-x="817" d="M35 1608l4 -13q188 -201 256 -292q43 -59 43 -101q0 -18 -1 -46t-3 -64.5t-2 -65.5v-45q0 -51 1 -127t3 -178q6 -203 6 -303q0 -123 -4 -212t-12 -149q27 -12 61 -12q29 0 84 23q-16 289 -24.5 502.5t-8.5 355.5q0 96 2 183t6 165q150 221 361 370v31q-55 14 -119 15 q-10 0 -18 -3h-17q-178 -233 -262 -303h-4q-82 111 -134 182.5t-75 108.5q-14 0 -44 4t-44 4q-47 0 -55 -30zM391 1786h117l321 321h-155z" />
<glyph unicode="&#xde;" horiz-adv-x="686" d="M27 1632q18 -625 18 -985v-311q0 -72 -3 -155t-7 -177q35 -2 49 -3t6 -1q41 0 64 18v7q6 61 6 129q0 61 -3 154t-7 218q-4 123 -7.5 215.5t-3.5 157.5v49l31 31l-4 -2q43 27 88 51.5t92 46.5q195 96 264 164v-2q43 39 49 49q23 29 23 64v8q-29 74 -92 74l-301 -2 q-12 0 -35 1t-45.5 2l-45 2t-34.5 1q4 121 0 188l-10 12q-49 12 -58 13q-18 0 -34 -17zM137 1208q0 18 3 54t3 55q33 14 74 18t80 6q6 0 19.5 4.5t21.5 4.5q6 0 19.5 -2t19.5 -2h102q45 0 78 -27q-45 -45 -76 -62q-176 -115 -331 -143q-12 45 -13 94z" />
<glyph unicode="&#xdf;" horiz-adv-x="1411" d="M43 43q0 -33 23 -43l170 4q37 0 90 55q23 23 39 45.5t26 45.5q59 125 100 360t64 590q8 137 25 162q12 63 43 133q18 43 37.5 69.5t38 42t34 21.5t27.5 10l-2 -2q25 10 45 10q8 0 26.5 -2t28.5 -2q47 0 47 62l-22 28l-47 6q-53 0 -99 -18q-68 -27 -104 -53 q-94 -70 -150 -271q-12 -43 -27.5 -120.5t-31.5 -192.5q-14 -84 -25 -131q-6 -68 -6 -100q-10 -125 -15 -197t-7 -88q-18 -174 -64 -277q-20 -51 -66 -81.5t-100 -32.5q-41 -2 -64.5 -4t-31.5 -4v-21zM526 47q0 -39 21 -47l172 4q37 0 90 55q23 23 39 45.5t26 45.5 q72 147 107 403q23 168 36 304t21 243q8 137 25 162q37 188 119 245q39 20 61 31l-2 -2q25 10 43 10q10 0 28.5 -2t28.5 -2q47 0 48 62l-23 28l-47 6q-53 0 -98 -18q-72 -27 -105 -53q-100 -80 -143 -242q-23 -115 -39 -200t-27 -142q-14 -84 -24 -131q-6 -68 -6 -100 q-31 -428 -86 -562q-23 -51 -68 -81.5t-98 -32.5q-41 -2 -64.5 -4t-34.5 -4v-21z" />
<glyph unicode="&#xe0;" d="M39 12q98 0 129 8l27 99q82 23 174 34t180 21q20 -6 141 -12q98 -2 121 -23q14 -12 20 -57q10 -53 21 -70q20 -12 39 -12q31 0 49 8h12q6 2 11 2l10 17q-123 481 -198 778t-101 416l-80 368q-12 55 -66 56h-10q-27 -23 -39 -56q-4 -10 -8 -26.5t-8 -40.5l-2 -2 q0 -51 -29 -80l8 -10q-55 -199 -94 -347.5t-61 -248.5v2q-20 -66 -37 -116t-27 -83q-61 -209 -107 -364.5t-75 -260.5zM152 2107l321 -321h119l-285 321h-155zM233 283q29 98 49.5 170.5t32.5 121.5q82 309 134.5 505t78.5 284q4 -20 5.5 -33.5t3.5 -23.5q16 -66 29.5 -115 t23.5 -84q70 -262 119 -469t82 -360l-553 -9l-2 13h-3z" />
<glyph unicode="&#xe1;" d="M39 12q98 0 129 8l27 99q82 23 174 34t180 21q20 -6 141 -12q98 -2 121 -23q14 -12 20 -57q10 -53 21 -70q20 -12 39 -12q31 0 49 8q29 0 37 2q-240 936 -301 1211q-29 123 -48.5 215t-33.5 153q-12 55 -66 56h-10q-27 -23 -39 -56q-4 -10 -8 -26.5t-8 -40.5l-2 -2 q0 -51 -29 -80l8 -10q-55 -199 -94 -347.5t-61 -248.5v2q-16 -59 -31.5 -108.5t-32.5 -90.5l2 2q-18 -57 -24 -90v2q-47 -166 -86 -299t-74 -240zM231 283q31 98 52.5 169.5t33.5 122.5q86 324 137 518.5t74 266.5q4 -16 6.5 -29.5t4.5 -21.5q33 -123 57.5 -214t40.5 -153 q88 -338 154 -663l-553 -9l-2 13h-5zM481 1786h119l324 321h-158z" />
<glyph unicode="&#xe2;" d="M39 12q98 0 129 8l27 99q82 23 174 34t180 21q10 -2 46 -4t95 -6q98 -6 121 -25q14 -12 20 -57q10 -53 21 -70q20 -12 39 -12q31 0 49 8h12q6 2 11 2l10 17q-117 451 -189.5 747.5t-107.5 446.5q-29 123 -48.5 215t-33.5 153q-12 53 -66 53h-10q-33 -25 -45 -73 q-4 -14 -6 -26.5t-6 -26.5q0 -43 -13 -62l-14 -18l6 -6q-55 -199 -94 -347.5t-61 -248.5v2q-59 -195 -86 -289v2q-45 -158 -85 -291t-75 -246zM229 283q33 94 54.5 165.5t33.5 124.5q92 350 144.5 545t66.5 242q23 -90 43.5 -172t40.5 -160v2q66 -256 110 -442.5t69 -308.5 l-553 -9l-2 13h-7zM317 1786h89l116 186l129 -186h86l-155 287h-101z" />
<glyph unicode="&#xe3;" d="M39 12q98 0 129 8l27 99q82 23 174 34t180 21q10 -2 46 -4t95 -6q98 -6 121 -25q14 -12 20 -57q10 -53 21 -70q20 -12 39 -12q31 0 49 8q29 0 37 2q-233 909 -301 1211q-29 123 -48.5 215t-33.5 153q-12 53 -66 53h-10q-27 -23 -39 -55q-8 -18 -16 -65l-2 -2 q0 -53 -29 -82l8 -11q-20 -61 -40.5 -134.5t-43.5 -159.5q-16 -76 -34.5 -150t-36.5 -149v2q-16 -59 -31.5 -108.5t-32.5 -90.5l2 2q-18 -57 -24 -90v2q-47 -166 -86 -299t-74 -240zM231 283q31 98 52.5 169.5t33.5 122.5q86 324 137 518.5t74 266.5q4 -16 6.5 -29.5 t4.5 -23.5q33 -123 57.5 -214.5t40.5 -152.5q47 -180 85 -344t69 -317l-553 -9l-2 13h-5zM360 1796h66q0 129 49 129q18 0 37 -24h-2q27 -37 59 -72q39 -45 76 -45q106 0 113 231h-64q-10 -145 -51 -145q-18 0 -72 72v-3q-49 70 -92 70q-115 0 -119 -213z" />
<glyph unicode="&#xe4;" d="M39 12q98 0 129 8l27 99q82 23 174 34t180 21q10 -2 46 -4t95 -6q98 -6 121 -25q14 -12 20 -57q10 -53 21 -70q20 -12 39 -12q31 0 49 8q29 0 37 2q-233 909 -301 1211q-29 123 -48.5 215t-33.5 153q-12 53 -66 53h-10q-27 -23 -39 -55q-8 -18 -16 -65l-2 -2 q0 -53 -29 -82l8 -8q-55 -199 -94 -347.5t-61 -248.5v2q-16 -59 -31.5 -108.5t-32.5 -90.5l2 2q-18 -57 -24 -90v2q-47 -166 -86 -299t-74 -240zM231 283q31 98 52.5 169.5t33.5 122.5q86 324 137 518.5t74 266.5q4 -16 6.5 -29.5t4.5 -23.5q33 -123 57.5 -214.5 t40.5 -152.5q47 -180 85 -344t69 -317l-553 -9l-2 13h-5zM334 1903q0 -119 78 -119q76 0 75 119q0 119 -75 118q-78 0 -78 -118zM573 1903q0 -119 76 -119t76 119t-76 118q-76 0 -76 -118z" />
<glyph unicode="&#xe5;" d="M39 12q98 0 129 8l27 99q82 23 174 34t180 21q20 -6 141 -12q98 -2 121 -23q14 -12 20 -57q10 -53 21 -70q20 -12 39 -12q31 0 49 8q29 0 37 2q-240 936 -301 1211q-29 123 -48.5 215t-33.5 153q-12 55 -66 56h-10q-27 -23 -39 -56q-4 -10 -8 -26.5t-8 -40.5l-2 -2 q0 -51 -29 -80l8 -10q-55 -199 -94 -347.5t-61 -248.5v2q-16 -59 -31.5 -108.5t-32.5 -90.5l2 2q-18 -57 -24 -90v2q-47 -166 -86 -299t-74 -240zM231 283q31 98 52.5 169.5t33.5 122.5q82 313 135 509t76 276q31 -129 54.5 -219t40.5 -148q35 -125 77.5 -302t90.5 -412 l-553 -9l-2 13h-5zM373 1958q0 -70 50 -121t120 -51t120 51t50 121t-50.5 122t-119.5 52q-35 0 -66 -13.5t-54.5 -37t-36.5 -55t-13 -68.5zM459 1958q0 37 23.5 61.5t60.5 24.5t60.5 -24.5t23.5 -61.5t-23.5 -60.5t-60.5 -23.5t-60.5 23.5t-23.5 60.5z" />
<glyph unicode="&#xe6;" horiz-adv-x="1343" d="M39 12q102 0 129 8l29 99q41 10 85 19t93 16q45 4 89 10t89 10q25 -8 141 -10q96 -4 121 -25q16 -14 23 -57q10 -53 20 -70q20 -12 39 -12q31 0 49 8q31 0 39 2l-43 164q68 -68 170 -119q113 -55 199 -55q20 20 20 37v10l-6 12q-231 86 -395 355q-20 41 -32.5 72.5 t-20.5 54.5q-39 98 -60.5 158.5t-30.5 86.5q-27 100 -45 174t-30 125v-2q-4 41 -6.5 71t-2.5 50l-2 4q0 12 -3 37t-3 37q0 74 62 86q162 31 344 31q12 0 35.5 -2t35.5 -2q51 0 89 24q4 12 4 27q0 23 -21 37q-18 0 -56 2t-57 2q-23 0 -56.5 -1t-80.5 -3q-45 -2 -80 -2h-55 q-51 0 -92 2t-70 6q4 23 39 49q131 8 254 12t242 4l26 19q4 12 5 26q0 25 -21 39l-571 -8q-10 -2 -21 -2q-10 0 -20 -2q-33 -6 -33 -37q-16 49 -64 49h-10q-27 -20 -39 -55q-8 -18 -16 -65l-2 -2q0 -53 -29 -82l8 -9q-43 -121 -86 -295q-18 -76 -36.5 -149.5t-34.5 -149.5v3 q-16 -59 -31.5 -108.5t-32.5 -90.5l2 2q-18 -57 -24 -90v2q-41 -141 -81 -274.5t-81 -262.5zM233 283q63 197 86 290q84 319 137 514t76 269q4 -16 6.5 -29.5t4.5 -23.5q33 -123 57.5 -214.5t40.5 -150.5q51 -201 90 -364.5t66 -294.5l-557 -9l-2 13h-5z" />
<glyph unicode="&#xe7;" horiz-adv-x="714" d="M33 1606q0 -885 123 -1170q43 -102 131 -217v2q47 -72 51 -74q45 -35 92 -64.5t94 -53.5l-106 -168q145 0 145 -43q0 -45 -61 -45q-45 0 -140 51l-53 -68q115 -78 199 -78q168 0 168 140q0 76 -103 110l45 74q41 -8 89 10q0 45 -11 56q-195 63 -227 104q-23 29 -39 48.5 t-27 33.5q-18 23 -30.5 38t-16.5 23v-2q-47 82 -85 179.5t-64 214.5q-102 453 -103 653q0 94 35 158q80 37 189 36q16 0 38.5 -1t51.5 -3q31 -2 53 -2h39q147 0 147 56v8l-2 8l-16 20h-33q-12 2 -22 2h-13q-88 0 -256 -6q-86 -2 -149.5 -3t-106.5 -1z" />
<glyph unicode="&#xe8;" horiz-adv-x="770" d="M35 1595q0 -14 1 -32.5t3 -40.5q2 -29 3 -47.5t1 -28.5q2 -18 2 -33v-22v2q41 -655 209 -1018l-2 2q125 -309 440 -371q33 -6 47 -6q18 18 19 37q0 10 -4 22q-221 84 -389 357q-20 41 -33 72.5t-21 54.5q-76 199 -115.5 337t-48.5 224q-4 70 -6 104l-2 4q0 12 -4 37 t-4 37q0 74 62 86q150 31 337 31q12 0 36 -2t36 -2q51 0 88 24q2 4 2 29t-18 37q-18 0 -55 2t-56 2q-23 0 -56.5 -1t-78.5 -3t-80 -2h-55q-92 0 -160 6q6 23 39 49q129 8 250 12.5t237 4.5l29 20q4 12 4 27q0 25 -20 39l-566 -9q-10 -2 -20 -2q-8 0 -18 -2q-33 -6 -33 -37z M39 2107l319 -321h119l-282 321h-156z" />
<glyph unicode="&#xe9;" horiz-adv-x="770" d="M35 1595q0 -14 1 -32.5t3 -40.5q2 -29 3 -47.5t1 -28.5q2 -18 2 -33v-22v2q41 -655 209 -1018l-2 2q125 -309 440 -371q33 -6 47 -6q18 18 19 37q0 10 -4 22q-221 84 -389 357q-20 41 -33 72.5t-21 54.5q-76 199 -115.5 337t-48.5 224q-4 70 -6 104l-2 4q0 12 -4 37 t-4 37q0 74 62 86q150 31 337 31q12 0 36 -2t36 -2q51 0 88 24q2 4 2 29t-18 37q-18 0 -55 2t-56 2q-23 0 -56.5 -1t-78.5 -3t-80 -2h-55q-92 0 -160 6q6 23 39 49q129 8 250 12.5t237 4.5l29 20q4 12 4 27q0 25 -20 39l-566 -9q-10 -2 -20 -2q-8 0 -18 -2q-33 -6 -33 -37z M309 1786h119l322 321h-158z" />
<glyph unicode="&#xea;" horiz-adv-x="770" d="M35 1595q0 -14 1 -32.5t3 -40.5q2 -29 3 -47.5t1 -28.5q2 -18 2 -33v-22v2q41 -655 209 -1018l-2 2q125 -309 440 -371q33 -6 47 -6q18 18 19 37q0 10 -4 22q-221 84 -389 357q-20 41 -33 72.5t-21 54.5q-76 199 -115.5 337t-48.5 224q-4 70 -6 104l-2 4q0 12 -4 37 t-4 37q0 74 62 86q150 31 337 31q12 0 36 -2t36 -2q51 0 88 24q2 4 2 29q0 23 -18 35q-18 0 -55 2t-56 2q-23 0 -56.5 -1t-78.5 -3t-80 -2h-55q-51 0 -91 2t-69 6q6 23 39 49q129 8 250 12.5t237 4.5l29 20q4 12 4 27q0 29 -20 36l-566 -6q-10 -2 -20 -2q-8 0 -18 -2 q-33 -6 -33 -37zM164 1786h88l117 186l127 -186h86l-154 287h-100z" />
<glyph unicode="&#xeb;" horiz-adv-x="770" d="M35 1595q0 -14 1 -33.5t3 -41.5q2 -29 3 -47.5t1 -28.5q2 -16 2 -31v-22v2q41 -655 209 -1018l-2 2q125 -309 440 -371q33 -6 47 -6q18 18 19 37q0 10 -4 22q-221 84 -389 357q-20 41 -33 72.5t-21 54.5q-76 197 -115.5 335t-48.5 224q-4 74 -6 106l-2 4q0 12 -4 36 t-4 36q0 76 62 88q150 31 337 31q12 0 36 -2t36 -2q51 0 88 24q2 4 2 27q0 25 -18 37q-18 0 -55 2t-56 2q-23 0 -56.5 -1t-78.5 -3t-80 -2h-55q-51 0 -91 2t-69 6q6 23 39 49q129 8 250 12.5t237 4.5l29 20q4 12 4 25q0 25 -20 38l-566 -8q-10 -2 -20 -2q-8 0 -18 -2 q-33 -6 -33 -35zM190 1903q0 -119 78 -119q74 0 74 119t-74 118q-78 0 -78 -118zM428 1903q0 -119 76 -119q74 0 74 119t-74 118q-76 0 -76 -118z" />
<glyph unicode="&#xec;" horiz-adv-x="239" d="M-254 2107l309 -321h117l-272 321h-154zM51 1632q18 -625 19 -989v-387v-106t-2 -115l18 -31q16 -2 28.5 -3t22.5 -1q37 0 43 31q2 6 2 116q0 117 -18 596q-8 186 -11 335t-3 261v45q0 29 2 66t2 63v48v28q0 16 -2 35l-11 12q-47 12 -55 13q-18 0 -35 -17z" />
<glyph unicode="&#xed;" horiz-adv-x="239" d="M41 1786h115l313 321h-152zM51 1632q18 -625 19 -989v-395v-101q0 -53 -2 -112l16 -31q31 -2 44 -3t9 -1q37 0 43 31q2 6 2 116q0 100 -4 249t-12 347.5t-12 347t-4 248.5v31q0 20 2 47v78v129l-11 12q-47 12 -57 13q-16 0 -33 -17z" />
<glyph unicode="&#xee;" horiz-adv-x="239" d="M-88 1786h84l110 186l123 -186h84l-149 287h-98zM49 1632q10 -299 15.5 -544.5t5.5 -444.5v-387v-106t-2 -115l16 -31q31 -2 44 -3t9 -1q12 0 25 4q18 8 20 66q-2 -39 -2 -21v98q0 100 -4 249t-12 347.5t-12.5 347t-4.5 248.5v45q0 29 2.5 66t2.5 63v48v28q0 16 -2 35 l-9 12q-27 4 -40 7.5t-17 3.5q-20 0 -35 -15z" />
<glyph unicode="&#xef;" horiz-adv-x="237" d="M-84 1903q0 -119 74 -119q70 0 69 119q0 119 -69 118q-74 0 -74 -118zM49 1630q10 -299 15.5 -543.5t5.5 -443.5v-391v-105q0 -53 -2 -112l16 -31q33 -2 45 -3t8 -1q23 0 33 10t10 137q0 100 -4 249t-12 347.5t-12.5 347t-4.5 248.5v45q0 29 2.5 64t2.5 61v45v33 q0 18 -2 35l-9 12q-49 12 -57 13q-18 0 -35 -17zM141 1903q0 -119 74 -119t74 119t-74 118q-74 0 -74 -118z" />
<glyph unicode="&#xf0;" horiz-adv-x="935" d="M4 713q0 -4 2 -15v-24l14 -19q23 2 66 2h107q2 -33 2 -77v-101v-229q0 -98 -2 -170h-11q0 -76 76 -76q14 0 41 3t39 3q14 0 31 -6h41q27 0 59.5 -2t56.5 -2h41q258 0 328 106q35 51 35 166q0 152 -115 459q-104 272 -244 508q-193 319 -372 401q-39 -27 -39 -104 q0 10 3 -25.5t11 -121.5q4 -57 6 -121t4 -135l6 -375q-74 6 -143 6q-10 0 -19.5 -1t-19.5 -3q-2 -10 -3 -19.5t-1 -17.5v-10zM242 1493v2q111 -51 293 -346q76 -123 159 -307q84 -197 113 -324q25 -117 24 -225q1 -82 -22 -154q-63 -59 -213 -59h-94q-215 0 -223 20l6 4v56 q0 35 -2 80q-2 47 -2 82v59h-21q20 84 27 276q94 -2 191 -7t202 -15q0 20 -2 52t-2 44q-10 2 -18.5 3t-16.5 1q-14 0 -45 -2t-45 -2q-76 0 -262 19q0 117 -25 372q-12 123 -18 215.5t-4 155.5z" />
<glyph unicode="&#xf1;" horiz-adv-x="745" d="M33 1606q49 -829 49 -1239l-4 -353q27 -8 55 -8q35 0 62 14q-16 498 -31 748q-10 174 -15.5 285.5t-5.5 158.5q0 43 1 112t3 167q4 0 12.5 2t12.5 2q39 0 90 -14q66 -14 90 -19q31 -16 121 -47q80 -28 117 -57q37 -227 37 -520q0 -12 -1 -31t-1 -39t-1 -38.5t-1 -31.5 q0 -10 -3.5 -32.5t-3.5 -32.5q0 -12 7 -19q2 -10 2 -122q0 -180 -19 -453l23 -39q47 6 73.5 9t32.5 5l-30 1284q-4 129 -6.5 211t-4.5 119q-10 0 -34.5 5t-36.5 5q-37 0 -58 -39l4 -28v2q4 -31 8.5 -53.5t8.5 -38.5l-2 -8q-47 16 -109.5 37.5t-144.5 43.5q-195 55 -244 56 q-10 0 -27.5 -2t-25.5 -2zM164 1796h63q2 129 49 129q16 0 39 -24h-2q27 -35 41.5 -53.5t16.5 -20.5q38 -43 73 -43q109 0 113 231h-61q-10 -145 -54 -145q-16 0 -69 72v-3q-49 70 -92 70q-113 0 -117 -213z" />
<glyph unicode="&#xf2;" horiz-adv-x="923" d="M41 705q4 -10 10 -15q0 -358 187 -594q29 -16 55 -31.5t55 -31.5q66 -33 123 -33q184 0 295 199q33 59 62.5 148t56.5 210q8 39 12 62.5t6 31.5q2 12 2 45v90q0 266 -26 400q-41 227 -170 354q-109 104 -230 105q-102 0 -155 -35q-147 -100 -220 -326q-57 -174 -57 -399 q0 -12 1 -33t1 -43q0 -23 1 -43.5t1 -32.5v-2l-4 -8v-2q-6 -10 -6 -16zM102 2107l322 -321h119l-285 321h-156zM168 846q0 424 108 598q68 106 211 106q14 0 25.5 -1t22.5 -3h-3q113 -33 150 -129q111 -287 111 -586q0 -20 -7 -96q-23 -270 -36 -338q-45 -193 -181 -270 q-45 -27 -90 -27q-104 0 -160 62q-82 90 -120 325q-31 178 -31 359z" />
<glyph unicode="&#xf3;" horiz-adv-x="923" d="M41 705q4 -10 10 -15q0 -358 187 -594q29 -16 55 -31.5t55 -31.5q66 -33 123 -33q184 0 295 199q33 59 62.5 148t56.5 210q8 39 12 62.5t6 31.5q2 12 2 45v90q0 266 -26 400q-41 227 -170 354q-109 104 -230 105q-102 0 -155 -35q-147 -100 -220 -326q-57 -174 -57 -399 q0 -12 1 -33t1 -43q0 -23 1 -43.5t1 -32.5v-2l-4 -8v-2q-6 -10 -6 -16zM168 846q0 424 108 598q68 106 211 106q14 0 25.5 -1t22.5 -3h-3q113 -33 150 -129q111 -287 111 -586q0 -20 -7 -96q-23 -270 -36 -338q-45 -193 -181 -270q-45 -27 -90 -27q-104 0 -160 62 q-82 90 -120 325q-31 178 -31 359zM422 1786h119l323 321h-157z" />
<glyph unicode="&#xf4;" horiz-adv-x="923" d="M41 705q4 -10 10 -15q0 -358 187 -594q29 -16 55 -31.5t55 -31.5q66 -33 123 -33q184 0 295 199q33 59 62.5 148t56.5 210q8 39 12 62.5t6 31.5q2 12 2 45v88q0 268 -26 402q-41 227 -170 354q-106 102 -230 102q-109 0 -155 -32q-147 -96 -220 -326q-57 -174 -57 -399 q0 -12 1 -33t1 -43q0 -23 1 -43.5t1 -32.5v-2l-4 -8v-2q-6 -10 -6 -16zM168 846q0 424 108 598q68 106 211 106q14 0 25.5 -1t22.5 -3h-3q113 -33 150 -129q111 -287 111 -586q0 -20 -7 -96q-23 -274 -36 -338q-45 -193 -181 -270q-45 -27 -90 -27q-104 0 -160 62 q-82 90 -120 325q-31 178 -31 359zM293 1786h88l117 186l125 -186h90l-156 287h-100z" />
<glyph unicode="&#xf5;" horiz-adv-x="923" d="M41 705q4 -10 10 -15q0 -358 187 -594q29 -16 55 -31.5t55 -31.5q66 -33 123 -33q188 0 295 199q33 59 62.5 147t56.5 211q8 39 12 62.5t6 34t2 42.5v88q0 268 -26 402q-41 227 -170 354q-106 102 -230 102q-102 0 -155 -34q-150 -98 -222 -324q-55 -178 -55 -399 q0 -12 1 -33t1 -43q0 -23 1 -43.5t1 -32.5v-2l-4 -8v-2q-6 -10 -6 -16zM168 846q0 422 108 596q72 108 211 108q14 0 25.5 -1t22.5 -3h-3q113 -33 150 -129q111 -283 111 -586q0 -20 -7 -96q-23 -274 -36 -338q-45 -193 -181 -270q-45 -27 -90 -27q-104 0 -160 62 q-82 90 -120 325q-31 178 -31 359zM297 1796h63q2 129 50 129q16 0 39 -24h-3q14 -18 28.5 -37t29.5 -35q43 -45 76 -45q106 0 112 231h-63q-10 -145 -51 -145q-12 0 -72 72v-3q-49 70 -92 70q-113 0 -117 -213z" />
<glyph unicode="&#xf6;" horiz-adv-x="923" d="M41 705q4 -10 10 -15q0 -358 187 -594q29 -16 55 -31.5t55 -31.5q66 -33 123 -33q188 0 295 199q33 59 62.5 147t56.5 211q8 39 12 62.5t6 34t2 42.5v88q0 268 -26 402q-41 227 -170 354q-106 102 -230 102q-102 0 -155 -34q-150 -98 -222 -324q-55 -178 -55 -399 q0 -12 1 -33t1 -43q0 -23 1 -43.5t1 -32.5v-2l-4 -8v-2q-6 -10 -6 -16zM168 846q0 422 108 596q72 108 211 108q31 0 50 -6q16 -2 71 -41q51 -35 74 -86q111 -287 111 -586q0 -20 -7 -96q-23 -274 -36 -338q-45 -193 -181 -270q-45 -27 -90 -27q-104 0 -160 62 q-82 90 -120 325q-31 178 -31 359zM295 1903q0 -119 78 -119q76 0 76 119t-76 118q-78 0 -78 -118zM535 1903q-1 -119 75 -119q74 0 74 119t-74 118q-76 0 -75 -118z" />
<glyph unicode="&#xf7;" horiz-adv-x="1112" d="M47 416h1040v135h-1040v-135zM471 199q0 -39 28.5 -69t67.5 -30q41 0 70 29t29 70q0 39 -30 67.5t-69 28.5t-67.5 -28.5t-28.5 -67.5zM471 770q0 -39 28.5 -68.5t67.5 -29.5q41 0 70 28.5t29 69.5q0 39 -30 67.5t-69 28.5t-67.5 -28.5t-28.5 -67.5z" />
<glyph unicode="&#xf8;" horiz-adv-x="923" d="M27 0h84l75 168q8 -14 21.5 -31.5t30.5 -40.5q29 -16 56.5 -31.5t55.5 -31.5q66 -33 123 -33q186 0 293 199q33 59 62.5 147t56.5 209q10 45 15 68.5t5 25.5q2 8 2 41v92q0 461 -127 662l88 190h-86l-53 -118q-115 123 -250 122q-102 0 -155 -34q-147 -96 -220 -324 q-57 -174 -57 -397q0 -12 1 -33t1 -43q0 -23 1 -43.5t1 -32.5v-2l-4 -8v-2q-6 -10 -6 -17q4 -10 10 -14q0 -236 92 -432zM168 844q0 420 108 594q72 109 211 108q14 0 25.5 -1t22.5 -3h-3q45 -14 89.5 -50t58.5 -77l-467 -1009v10q-8 39 -12 67.5t-8 48.5q-25 156 -25 312z M248 297l469 1012q76 -230 76 -480q0 -20 -7 -96q-23 -274 -36 -336q-47 -195 -181 -270q-45 -27 -90 -27q-94 0 -151 54q-43 43 -80 143z" />
<glyph unicode="&#xf9;" horiz-adv-x="843" d="M39 393q0 -117 14 -166q23 -84 86 -139q45 -39 113 -39q84 -47 197 -47q8 0 27.5 2t27.5 2q16 0 39.5 -1t56.5 -3t55 -2h41q68 0 133 18l-18 900v24q2 10 2 25q0 33 -1 80t-3 110.5t-3 110.5t-1 80q0 66 5 132t15 136l-12 29q-100 0 -125 -9l-8 -20q0 10 14 -62 q2 -20 3 -35.5t1 -25.5q18 -301 19 -619q0 -63 -1 -157t-3 -219v2q-4 -66 -6 -114t-2 -81q-6 -127 -7 -194q-12 -12 -51 -15q-14 -2 -29 -2q-14 0 -28 -2h2q-33 -2 -56.5 -3t-39.5 -1q-178 0 -267 64q-74 51 -73 182q0 119 53 362q135 612 305 930q-49 16 -74 16h-14 q-57 -70 -61 -118l-3 -2q-8 -20 -15 -38t-15 -32q-4 -8 -8.5 -14t-6.5 -11l-43 -129q-35 -84 -49 -129q-8 -23 -16 -55.5t-19 -75.5v2q-14 -43 -23 -74.5t-15 -54.5q-33 -104 -52.5 -168.5t-25.5 -87.5q-16 -70 -25.5 -134t-9.5 -128zM246 2107l319 -321h121l-285 321h-155z " />
<glyph unicode="&#xfa;" horiz-adv-x="847" d="M39 393q0 -117 14 -166q23 -84 86 -139q45 -39 115 -39q84 -47 197 -47q10 0 28.5 2t28.5 2q16 0 39.5 -1t56.5 -3t55 -2h41q68 0 136 18l-21 900v24q2 10 2 25q0 33 -1 80t-3 110.5t-3 110.5t-1 80q0 70 6 136t16 132l-14 29q-100 0 -127 -9l-8 -20q0 -25 16 -62 q10 -166 16.5 -335.5t6.5 -344.5q0 -63 -1 -157t-3 -219v2q-4 -66 -6 -114t-2 -81q-6 -127 -7 -194q-12 -12 -51 -15q-14 -2 -28 -2t-29 -2h2q-33 -2 -56.5 -3t-39.5 -1q-182 0 -271 64q-74 51 -73 182q0 78 28 233q133 684 334 1059q-53 16 -76 16h-14q-57 -70 -61 -118 l-2 -2q-8 -20 -15.5 -38t-15.5 -32q-4 -8 -8 -14t-7 -11q-16 -45 -27 -79.5t-20 -57.5q-16 -41 -27.5 -69.5t-19.5 -49.5q-20 -55 -32 -133l-101 -315q-53 -172 -53 -330zM569 1786h119l324 321h-158z" />
<glyph unicode="&#xfb;" horiz-adv-x="843" d="M39 393q0 -117 14 -166q23 -84 86 -139q45 -39 113 -39q84 -47 197 -47q8 0 27.5 2t27.5 2q16 0 39.5 -1t56.5 -3t55 -2h41q68 0 133 18l-18 900v24q2 10 2 23q0 33 -1 80t-3 110q-2 66 -3 113t-1 80q0 70 6 136t16 132l-14 26q-94 0 -125 -6l-8 -20q0 10 14 -62 q2 -20 3 -35.5t1 -25.5q18 -301 19 -619q0 -63 -1 -157t-3 -219v2q-4 -66 -6 -114t-2 -81q-6 -127 -7 -194q-12 -12 -51 -15q-14 -2 -29 -2q-14 0 -28 -2h2q-31 -2 -55.5 -3t-40.5 -1q-178 0 -267 64q-74 51 -73 182q0 119 53 362q135 612 305 930q-37 14 -74 14h-14 q-8 -8 -17.5 -22t-21.5 -35q-25 -47 -22 -61q-8 -20 -15.5 -36t-15.5 -30q-8 -16 -17 -29q-29 -86 -43 -129q-16 -43 -28.5 -74.5t-20.5 -52.5q-8 -23 -16 -56.5t-19 -76.5v2q-14 -43 -23 -74.5t-15 -54.5q-33 -104 -52.5 -168.5t-25.5 -87.5q-16 -70 -25.5 -134t-9.5 -128z M424 1786h86l119 186l125 -186h88l-154 287h-102z" />
<glyph unicode="&#xfc;" horiz-adv-x="843" d="M39 393q0 -117 14 -166q23 -84 86 -139q45 -39 113 -39q84 -47 197 -47q8 0 27.5 2t27.5 2q16 0 39.5 -1t56.5 -3t55 -2h41q68 0 133 18l-18 900v24q2 10 2 23q0 33 -1 80t-3 110q-2 66 -3 113t-1 80q0 66 5 131t15 135l-12 28q-100 0 -125 -8l-8 -20q0 10 3 -5.5 t11 -54.5q2 -20 3 -35.5t1 -25.5q18 -305 19 -619q0 -63 -1 -157t-3 -219v2q-4 -66 -6 -114t-2 -81q-6 -127 -7 -194q-12 -12 -51 -15q-14 -2 -29 -2q-14 0 -28 -2h2q-33 -2 -56.5 -3t-39.5 -1q-178 0 -267 64q-74 51 -73 182q0 119 53 362q70 309 144.5 539.5t160.5 388.5 q-49 16 -74 16h-14q-59 -72 -61 -116l-3 -2q-27 -70 -45 -95q-16 -51 -30.5 -94t-28.5 -80q-10 -29 -18.5 -48t-14.5 -34q-8 -25 -16 -58.5t-19 -74.5v2q-14 -43 -23 -74.5t-15 -54.5q-33 -106 -52.5 -169.5t-25.5 -86.5q-16 -70 -25.5 -134t-9.5 -128zM430 1903 q0 -119 78 -119q76 0 76 119t-76 118q-78 0 -78 -118zM670 1903q-1 -119 75 -119t76 119t-76 118q-76 0 -75 -118z" />
<glyph unicode="&#xfd;" horiz-adv-x="817" d="M35 1608l4 -13q188 -201 256 -292q43 -59 43 -101q0 -18 -1 -46t-3 -64.5t-2 -65.5v-45q0 -51 1 -127t3 -178q6 -203 6 -303q0 -123 -4 -212t-12 -149q27 -12 61 -12q29 0 84 23q-16 289 -24.5 502.5t-8.5 355.5q0 96 2 183t6 165q150 221 361 370v31q-55 14 -119 15 q-10 0 -18 -3h-17q-178 -233 -262 -303h-4q-82 111 -134 182.5t-75 108.5q-14 0 -44 4t-44 4q-47 0 -55 -30zM391 1786h117l321 321h-155z" />
<glyph unicode="&#xfe;" horiz-adv-x="686" d="M27 1632q18 -625 18 -985v-311q0 -72 -3 -155t-7 -177q35 -2 49 -3t6 -1q41 0 64 18v7q6 61 6 129q0 61 -3 154t-7 218q-4 123 -7.5 215.5t-3.5 157.5v49l31 31l-4 -2q43 27 88 51.5t92 46.5q195 96 264 164v-2q43 39 49 49q23 29 23 64v8q-29 74 -92 74l-301 -2 q-12 0 -35 1t-45.5 2l-45 2t-34.5 1q4 121 0 188l-10 12q-49 12 -58 13q-18 0 -34 -17zM137 1208q0 18 3 54t3 55q33 14 74 18t80 6q6 0 19.5 4.5t21.5 4.5q6 0 19.5 -2t19.5 -2h102q45 0 78 -27q-45 -45 -76 -62q-176 -115 -331 -143q-12 45 -13 94z" />
<glyph unicode="&#xff;" horiz-adv-x="817" d="M35 1606l4 -11q98 -106 160.5 -180t95.5 -115q43 -59 43 -98q0 -18 -1 -46t-3 -64.5t-2 -65.5v-45q0 -51 1 -127t3 -178q6 -203 6 -303q0 -123 -4 -212t-12 -149q27 -12 61 -12q29 0 84 23q-16 289 -24.5 502.5t-8.5 355.5q0 94 2 180t6 168q74 111 163 203t196 167v29 q-51 14 -117 14q-10 0 -18 -2h-17q-170 -221 -262 -301h-4q-152 197 -209 289q-14 0 -44 4t-44 4q-47 0 -55 -30zM223 1903q0 -119 76 -119t76 119t-76 118q-76 0 -76 -118zM461 1903q0 -119 76 -119q74 0 73 119q0 119 -73 118q-76 0 -76 -118z" />
<glyph unicode="&#x152;" horiz-adv-x="1533" d="M43 702q4 -10 10 -14q0 -356 187 -592q29 -16 56.5 -31.5t55.5 -31.5q68 -33 125 -33q201 0 316 225q51 106 116 398q14 -51 38 -112.5t59 -137.5l-2 2q125 -307 448 -369q33 -6 47 -6q20 20 21 37v10l-7 12q-231 86 -395 355q-20 41 -33.5 72.5t-21.5 54.5 q-133 348 -152 481q-6 53 -12 99t-10 87q0 12 -4 37t-4 37q0 74 61 86q150 31 346 31q12 0 36 -2t36 -2q51 0 88 24q4 12 4 27q0 23 -20 37q-18 0 -56.5 2t-56.5 2q-23 0 -56.5 -1t-80.5 -3q-45 -2 -80 -2h-55q-53 0 -94.5 2t-69.5 6q6 20 41 49q129 8 251.5 12t241.5 4 l29 19q4 12 4 26q0 25 -20 39l-574 -8q-10 -2 -20 -2q-8 0 -19 -2q-33 -6 -33 -37q0 2 2 -34.5t7 -112.5q-127 197 -308 196q-106 0 -159 -34q-150 -94 -222 -324q-55 -178 -55 -397q0 -12 1 -33t1 -43q0 -23 1 -43.5t1 -32.5v-2l-4 -8v-2q-6 -10 -6 -17zM170 844 q0 418 111 594q72 108 213 108q14 0 25 -1t22 -3h-2q27 -8 75 -41q53 -37 74 -88q113 -283 113 -584q0 -23 -1 -46t-3 -50q-10 -131 -19.5 -215t-19.5 -123q-45 -190 -183 -268q-45 -27 -90 -27q-106 0 -163 62q-82 88 -121 323q-31 180 -31 359z" />
<glyph unicode="&#x153;" horiz-adv-x="1533" d="M43 702q4 -10 10 -14q0 -356 187 -592q29 -16 56.5 -31.5t55.5 -31.5q68 -33 125 -33q201 0 316 225q51 106 116 398q14 -51 38 -112.5t59 -137.5l-2 2q125 -307 448 -369q33 -6 47 -6q20 20 21 37v10l-7 12q-231 86 -395 355q-20 41 -33.5 72.5t-21.5 54.5 q-133 348 -152 481q-6 53 -12 99t-10 87q0 12 -4 37t-4 37q0 74 61 86q150 31 346 31q12 0 36 -2t36 -2q51 0 88 24q4 12 4 27q0 23 -20 37q-18 0 -56.5 2t-56.5 2q-23 0 -56.5 -1t-80.5 -3q-45 -2 -80 -2h-55q-53 0 -94.5 2t-69.5 6q6 20 41 49q129 8 251.5 12t241.5 4 l29 19q4 12 4 26q0 25 -20 39l-574 -8q-10 -2 -20 -2q-8 0 -19 -2q-33 -6 -33 -37q0 2 2 -34.5t7 -112.5q-127 197 -308 196q-106 0 -159 -34q-150 -94 -222 -324q-55 -178 -55 -397q0 -12 1 -33t1 -43q0 -23 1 -43.5t1 -32.5v-2l-4 -8v-2q-6 -10 -6 -17zM170 844 q0 418 111 594q72 108 213 108q14 0 25 -1t22 -3h-2q27 -8 75 -41q53 -37 74 -88q113 -283 113 -584q0 -23 -1 -46t-3 -50q-10 -131 -19.5 -215t-19.5 -123q-45 -190 -183 -268q-45 -27 -90 -27q-106 0 -163 62q-82 88 -121 323q-31 180 -31 359z" />
<glyph unicode="&#x178;" horiz-adv-x="817" d="M35 1606l4 -11q98 -106 160.5 -180t95.5 -115q43 -59 43 -98q0 -18 -1 -46t-3 -64.5t-2 -65.5v-45q0 -51 1 -127t3 -178q6 -203 6 -303q0 -123 -4 -212t-12 -149q27 -12 61 -12q29 0 84 23q-16 289 -24.5 502.5t-8.5 355.5q0 94 2 180t6 168q74 111 163 203t196 167v29 q-51 14 -117 14q-10 0 -18 -2h-17q-170 -221 -262 -301h-4q-152 197 -209 289q-14 0 -44 4t-44 4q-47 0 -55 -30zM223 1903q0 -119 76 -119t76 119t-76 118q-76 0 -76 -118zM461 1903q0 -119 76 -119q74 0 73 119q0 119 -73 118q-76 0 -76 -118z" />
<glyph unicode="&#x2c6;" horiz-adv-x="749" d="M160 1653h84l114 174l123 -174h86l-151 266h-99z" />
<glyph unicode="&#x2dc;" horiz-adv-x="722" d="M168 1618h43q10 115 57 115q27 0 76 -64q49 -61 88 -61q92 0 98 188h-41q-8 -131 -59 -131q-27 0 -78 70v-2q-39 57 -80 57q-96 0 -104 -172z" />
<glyph unicode="&#x2000;" horiz-adv-x="1066" />
<glyph unicode="&#x2001;" horiz-adv-x="2132" />
<glyph unicode="&#x2002;" horiz-adv-x="1066" />
<glyph unicode="&#x2003;" horiz-adv-x="2132" />
<glyph unicode="&#x2004;" horiz-adv-x="710" />
<glyph unicode="&#x2005;" horiz-adv-x="533" />
<glyph unicode="&#x2006;" horiz-adv-x="355" />
<glyph unicode="&#x2007;" horiz-adv-x="355" />
<glyph unicode="&#x2008;" horiz-adv-x="266" />
<glyph unicode="&#x2009;" horiz-adv-x="426" />
<glyph unicode="&#x200a;" horiz-adv-x="118" />
<glyph unicode="&#x2010;" horiz-adv-x="391" d="M23 559h94l22 35h174l78 125h-102l-19 -31h-168z" />
<glyph unicode="&#x2011;" horiz-adv-x="391" d="M23 559h94l22 35h174l78 125h-102l-19 -31h-168z" />
<glyph unicode="&#x2012;" horiz-adv-x="391" d="M23 559h94l22 35h174l78 125h-102l-19 -31h-168z" />
<glyph unicode="&#x2013;" horiz-adv-x="999" d="M23 559h100l24 39h773l81 129h-102l-27 -39h-768z" />
<glyph unicode="&#x2014;" horiz-adv-x="2017" d="M211 559h104l23 39h1409l82 129h-103l-26 -39h-1405z" />
<glyph unicode="&#x2018;" horiz-adv-x="196" d="M25 1548q0 90 81 90q63 0 64 -73q0 -53 -57 -97q16 -23 27.5 -38t21.5 -25l-51 -31q-86 70 -86 174z" />
<glyph unicode="&#x2019;" horiz-adv-x="196" d="M25 1565q0 -53 57 -97q-16 -23 -27.5 -38t-21.5 -25l51 -31q86 70 86 174q0 90 -82 90q-63 0 -63 -73z" />
<glyph unicode="&#x201a;" horiz-adv-x="196" d="M10 98q0 -55 49 -92q-8 -12 -17 -27.5t-24 -33.5l48 -33q8 10 13 16t9 11q53 65 53 143q0 90 -71 90q-59 0 -60 -74z" />
<glyph unicode="&#x201c;" horiz-adv-x="413" d="M25 1548q0 90 81 90q66 0 66 -73q0 -51 -57 -97q14 -23 25.5 -38t21.5 -25l-51 -31q-20 14 -25 27q-61 67 -61 147zM238 1548q0 90 81 90q63 0 64 -73q0 -53 -57 -97q16 -23 27.5 -38t21.5 -25l-51 -31q-86 70 -86 174z" />
<glyph unicode="&#x201d;" horiz-adv-x="413" d="M25 1565q0 -53 57 -97q-16 -23 -27.5 -38t-21.5 -25l51 -31q86 70 86 174q0 90 -82 90q-63 0 -63 -73zM236 1565q0 -51 57 -97q-14 -23 -25.5 -38t-21.5 -25l51 -31q20 14 25 27q61 67 61 147q0 90 -82 90q-66 0 -65 -73z" />
<glyph unicode="&#x201e;" horiz-adv-x="413" d="M25 98q0 -59 55 -92q-10 -14 -21.5 -29.5t-25.5 -31.5l51 -33l27 27q59 71 59 143q0 90 -82 90q-63 0 -63 -74zM236 98q0 -55 57 -92q-10 -14 -21.5 -29.5t-25.5 -31.5l51 -33q86 94 86 170q0 90 -82 90q-66 0 -65 -74z" />
<glyph unicode="&#x2022;" horiz-adv-x="962" d="M301 686q0 -39 15.5 -73.5t41 -60.5t60.5 -41t74 -15q80 0 135 55t55 135t-55.5 135.5t-134.5 55.5q-39 0 -74 -15.5t-60.5 -41t-41 -60.5t-15.5 -74z" />
<glyph unicode="&#x2026;" horiz-adv-x="669" d="M53 74q1 -82 58 -82t57 82q0 92 -57 92t-58 -92zM276 74q1 -82 58 -82t57 82q0 92 -57 92t-58 -92zM500 74q0 -82 57 -82t57 82q0 92 -57 92t-57 -92z" />
<glyph unicode="&#x202f;" horiz-adv-x="426" />
<glyph unicode="&#x2039;" horiz-adv-x="528" d="M94 727l230 -405h96l-225 405l211 371h-99z" />
<glyph unicode="&#x203a;" horiz-adv-x="528" d="M131 1098l225 -406l-211 -370h99l213 370l-230 406h-96z" />
<glyph unicode="&#x205f;" horiz-adv-x="533" />
<glyph unicode="&#x2122;" horiz-adv-x="1226" d="M12 1434h39q6 16 11.5 29.5t9.5 25.5l-2 -2q31 68 59 84h-2q14 8 33.5 15t44.5 11v-372q0 -55 -23.5 -71.5t-83.5 -18.5v-37h312v37q-59 6 -78 20t-19 70v372q76 -14 105 -51v2q23 -41 43 -106l12 -8h33l-10 204h-473zM528 1098h201v37q-41 10 -50 26.5t-9 63.5v342 l147 -469h35l168 485h2v-358q0 -47 -12.5 -63.5t-59.5 -26.5v-37h254v37q-25 2 -40 6t-22 13t-9.5 25.5t-2.5 45.5v295q0 51 19 63q12 8 65 12v43h-221l-127 -354l-110 354h-205v-41q25 0 39 -2t20 -8t8.5 -19.5t2.5 -37.5v-305q0 -29 -5.5 -44.5t-16.5 -23.5t-28.5 -12 t-42.5 -10v-37z" />
<glyph unicode="&#x25fc;" horiz-adv-x="1638" d="M0 0v1638h1638v-1638h-1638z" />
</font>
</defs>
</svg>
